G04 #@! TF.GenerationSoftware,KiCad,Pcbnew,5.0.0-fee4fd1~66~ubuntu16.04.1*
G04 #@! TF.CreationDate,2018-10-28T21:05:27-03:00*
G04 #@! TF.ProjectId,MMA7361,4D4D41373336312E6B696361645F7063,rev?*
G04 #@! TF.SameCoordinates,Original*
G04 #@! TF.FileFunction,Soldermask,Top*
G04 #@! TF.FilePolarity,Negative*
%FSLAX46Y46*%
G04 Gerber Fmt 4.6, Leading zero omitted, Abs format (unit mm)*
G04 Created by KiCad (PCBNEW 5.0.0-fee4fd1~66~ubuntu16.04.1) date Sun Oct 28 21:05:27 2018*
%MOMM*%
%LPD*%
G01*
G04 APERTURE LIST*
%ADD10C,0.100000*%
G04 APERTURE END LIST*
D10*
X142494000Y-98806000D02*
X142494000Y-78486000D01*
X164846000Y-98806000D02*
X142494000Y-98806000D01*
X164846000Y-78486000D02*
X164846000Y-98806000D01*
X142494000Y-78486000D02*
X164846000Y-78486000D01*
G36*
X155255530Y-95879710D02*
X155305379Y-95894831D01*
X155351311Y-95919382D01*
X155391574Y-95952426D01*
X155424618Y-95992689D01*
X155449169Y-96038621D01*
X155464290Y-96088470D01*
X155470000Y-96146444D01*
X155470000Y-97401556D01*
X155464290Y-97459530D01*
X155449169Y-97509379D01*
X155424618Y-97555311D01*
X155391574Y-97595574D01*
X155351311Y-97628618D01*
X155305379Y-97653169D01*
X155255530Y-97668290D01*
X155197556Y-97674000D01*
X154192444Y-97674000D01*
X154134470Y-97668290D01*
X154084621Y-97653169D01*
X154038689Y-97628618D01*
X153998426Y-97595574D01*
X153965382Y-97555311D01*
X153940831Y-97509379D01*
X153925710Y-97459530D01*
X153920000Y-97401556D01*
X153920000Y-96146444D01*
X153925710Y-96088470D01*
X153940831Y-96038621D01*
X153965382Y-95992689D01*
X153998426Y-95952426D01*
X154038689Y-95919382D01*
X154084621Y-95894831D01*
X154134470Y-95879710D01*
X154192444Y-95874000D01*
X155197556Y-95874000D01*
X155255530Y-95879710D01*
X155255530Y-95879710D01*
G37*
G36*
X158294530Y-95879710D02*
X158344379Y-95894831D01*
X158390311Y-95919382D01*
X158430574Y-95952426D01*
X158463618Y-95992689D01*
X158488169Y-96038621D01*
X158503290Y-96088470D01*
X158509000Y-96146444D01*
X158509000Y-97401556D01*
X158503290Y-97459530D01*
X158488169Y-97509379D01*
X158463618Y-97555311D01*
X158430574Y-97595574D01*
X158390311Y-97628618D01*
X158344379Y-97653169D01*
X158294530Y-97668290D01*
X158236556Y-97674000D01*
X157231444Y-97674000D01*
X157173470Y-97668290D01*
X157123621Y-97653169D01*
X157077689Y-97628618D01*
X157037426Y-97595574D01*
X157004382Y-97555311D01*
X156979831Y-97509379D01*
X156964710Y-97459530D01*
X156959000Y-97401556D01*
X156959000Y-96146444D01*
X156964710Y-96088470D01*
X156979831Y-96038621D01*
X157004382Y-95992689D01*
X157037426Y-95952426D01*
X157077689Y-95919382D01*
X157123621Y-95894831D01*
X157173470Y-95879710D01*
X157231444Y-95874000D01*
X158236556Y-95874000D01*
X158294530Y-95879710D01*
X158294530Y-95879710D01*
G37*
G36*
X160344530Y-95879710D02*
X160394379Y-95894831D01*
X160440311Y-95919382D01*
X160480574Y-95952426D01*
X160513618Y-95992689D01*
X160538169Y-96038621D01*
X160553290Y-96088470D01*
X160559000Y-96146444D01*
X160559000Y-97401556D01*
X160553290Y-97459530D01*
X160538169Y-97509379D01*
X160513618Y-97555311D01*
X160480574Y-97595574D01*
X160440311Y-97628618D01*
X160394379Y-97653169D01*
X160344530Y-97668290D01*
X160286556Y-97674000D01*
X159281444Y-97674000D01*
X159223470Y-97668290D01*
X159173621Y-97653169D01*
X159127689Y-97628618D01*
X159087426Y-97595574D01*
X159054382Y-97555311D01*
X159029831Y-97509379D01*
X159014710Y-97459530D01*
X159009000Y-97401556D01*
X159009000Y-96146444D01*
X159014710Y-96088470D01*
X159029831Y-96038621D01*
X159054382Y-95992689D01*
X159087426Y-95952426D01*
X159127689Y-95919382D01*
X159173621Y-95894831D01*
X159223470Y-95879710D01*
X159281444Y-95874000D01*
X160286556Y-95874000D01*
X160344530Y-95879710D01*
X160344530Y-95879710D01*
G37*
G36*
X148878530Y-95879710D02*
X148928379Y-95894831D01*
X148974311Y-95919382D01*
X149014574Y-95952426D01*
X149047618Y-95992689D01*
X149072169Y-96038621D01*
X149087290Y-96088470D01*
X149093000Y-96146444D01*
X149093000Y-97401556D01*
X149087290Y-97459530D01*
X149072169Y-97509379D01*
X149047618Y-97555311D01*
X149014574Y-97595574D01*
X148974311Y-97628618D01*
X148928379Y-97653169D01*
X148878530Y-97668290D01*
X148820556Y-97674000D01*
X147815444Y-97674000D01*
X147757470Y-97668290D01*
X147707621Y-97653169D01*
X147661689Y-97628618D01*
X147621426Y-97595574D01*
X147588382Y-97555311D01*
X147563831Y-97509379D01*
X147548710Y-97459530D01*
X147543000Y-97401556D01*
X147543000Y-96146444D01*
X147548710Y-96088470D01*
X147563831Y-96038621D01*
X147588382Y-95992689D01*
X147621426Y-95952426D01*
X147661689Y-95919382D01*
X147707621Y-95894831D01*
X147757470Y-95879710D01*
X147815444Y-95874000D01*
X148820556Y-95874000D01*
X148878530Y-95879710D01*
X148878530Y-95879710D01*
G37*
G36*
X150928530Y-95879710D02*
X150978379Y-95894831D01*
X151024311Y-95919382D01*
X151064574Y-95952426D01*
X151097618Y-95992689D01*
X151122169Y-96038621D01*
X151137290Y-96088470D01*
X151143000Y-96146444D01*
X151143000Y-97401556D01*
X151137290Y-97459530D01*
X151122169Y-97509379D01*
X151097618Y-97555311D01*
X151064574Y-97595574D01*
X151024311Y-97628618D01*
X150978379Y-97653169D01*
X150928530Y-97668290D01*
X150870556Y-97674000D01*
X149865444Y-97674000D01*
X149807470Y-97668290D01*
X149757621Y-97653169D01*
X149711689Y-97628618D01*
X149671426Y-97595574D01*
X149638382Y-97555311D01*
X149613831Y-97509379D01*
X149598710Y-97459530D01*
X149593000Y-97401556D01*
X149593000Y-96146444D01*
X149598710Y-96088470D01*
X149613831Y-96038621D01*
X149638382Y-95992689D01*
X149671426Y-95952426D01*
X149711689Y-95919382D01*
X149757621Y-95894831D01*
X149807470Y-95879710D01*
X149865444Y-95874000D01*
X150870556Y-95874000D01*
X150928530Y-95879710D01*
X150928530Y-95879710D01*
G37*
G36*
X153205530Y-95879710D02*
X153255379Y-95894831D01*
X153301311Y-95919382D01*
X153341574Y-95952426D01*
X153374618Y-95992689D01*
X153399169Y-96038621D01*
X153414290Y-96088470D01*
X153420000Y-96146444D01*
X153420000Y-97401556D01*
X153414290Y-97459530D01*
X153399169Y-97509379D01*
X153374618Y-97555311D01*
X153341574Y-97595574D01*
X153301311Y-97628618D01*
X153255379Y-97653169D01*
X153205530Y-97668290D01*
X153147556Y-97674000D01*
X152142444Y-97674000D01*
X152084470Y-97668290D01*
X152034621Y-97653169D01*
X151988689Y-97628618D01*
X151948426Y-97595574D01*
X151915382Y-97555311D01*
X151890831Y-97509379D01*
X151875710Y-97459530D01*
X151870000Y-97401556D01*
X151870000Y-96146444D01*
X151875710Y-96088470D01*
X151890831Y-96038621D01*
X151915382Y-95992689D01*
X151948426Y-95952426D01*
X151988689Y-95919382D01*
X152034621Y-95894831D01*
X152084470Y-95879710D01*
X152142444Y-95874000D01*
X153147556Y-95874000D01*
X153205530Y-95879710D01*
X153205530Y-95879710D01*
G37*
G36*
X158276530Y-93339710D02*
X158326379Y-93354831D01*
X158372311Y-93379382D01*
X158412574Y-93412426D01*
X158445618Y-93452689D01*
X158470169Y-93498621D01*
X158485290Y-93548470D01*
X158491000Y-93606444D01*
X158491000Y-94861556D01*
X158485290Y-94919530D01*
X158470169Y-94969379D01*
X158445618Y-95015311D01*
X158412574Y-95055574D01*
X158372311Y-95088618D01*
X158326379Y-95113169D01*
X158276530Y-95128290D01*
X158218556Y-95134000D01*
X157213444Y-95134000D01*
X157155470Y-95128290D01*
X157105621Y-95113169D01*
X157059689Y-95088618D01*
X157019426Y-95055574D01*
X156986382Y-95015311D01*
X156961831Y-94969379D01*
X156946710Y-94919530D01*
X156941000Y-94861556D01*
X156941000Y-93606444D01*
X156946710Y-93548470D01*
X156961831Y-93498621D01*
X156986382Y-93452689D01*
X157019426Y-93412426D01*
X157059689Y-93379382D01*
X157105621Y-93354831D01*
X157155470Y-93339710D01*
X157213444Y-93334000D01*
X158218556Y-93334000D01*
X158276530Y-93339710D01*
X158276530Y-93339710D01*
G37*
G36*
X160326530Y-93339710D02*
X160376379Y-93354831D01*
X160422311Y-93379382D01*
X160462574Y-93412426D01*
X160495618Y-93452689D01*
X160520169Y-93498621D01*
X160535290Y-93548470D01*
X160541000Y-93606444D01*
X160541000Y-94861556D01*
X160535290Y-94919530D01*
X160520169Y-94969379D01*
X160495618Y-95015311D01*
X160462574Y-95055574D01*
X160422311Y-95088618D01*
X160376379Y-95113169D01*
X160326530Y-95128290D01*
X160268556Y-95134000D01*
X159263444Y-95134000D01*
X159205470Y-95128290D01*
X159155621Y-95113169D01*
X159109689Y-95088618D01*
X159069426Y-95055574D01*
X159036382Y-95015311D01*
X159011831Y-94969379D01*
X158996710Y-94919530D01*
X158991000Y-94861556D01*
X158991000Y-93606444D01*
X158996710Y-93548470D01*
X159011831Y-93498621D01*
X159036382Y-93452689D01*
X159069426Y-93412426D01*
X159109689Y-93379382D01*
X159155621Y-93354831D01*
X159205470Y-93339710D01*
X159263444Y-93334000D01*
X160268556Y-93334000D01*
X160326530Y-93339710D01*
X160326530Y-93339710D01*
G37*
G36*
X155112000Y-89244000D02*
X155114402Y-89268386D01*
X155121515Y-89291835D01*
X155133066Y-89313446D01*
X155148612Y-89332388D01*
X155167554Y-89347934D01*
X155189165Y-89359485D01*
X155212614Y-89366598D01*
X155237000Y-89369000D01*
X155487000Y-89369000D01*
X155487000Y-89619000D01*
X155489402Y-89643386D01*
X155496515Y-89666835D01*
X155508066Y-89688446D01*
X155523612Y-89707388D01*
X155542554Y-89722934D01*
X155564165Y-89734485D01*
X155587614Y-89741598D01*
X155612000Y-89744000D01*
X156387000Y-89744000D01*
X156387000Y-93644000D01*
X155612000Y-93644000D01*
X155587614Y-93646402D01*
X155564165Y-93653515D01*
X155542554Y-93665066D01*
X155523612Y-93680612D01*
X155508066Y-93699554D01*
X155496515Y-93721165D01*
X155489402Y-93744614D01*
X155487000Y-93769000D01*
X155487000Y-94019000D01*
X155237000Y-94019000D01*
X155212614Y-94021402D01*
X155189165Y-94028515D01*
X155167554Y-94040066D01*
X155148612Y-94055612D01*
X155133066Y-94074554D01*
X155121515Y-94096165D01*
X155114402Y-94119614D01*
X155112000Y-94144000D01*
X155112000Y-94919000D01*
X151212000Y-94919000D01*
X151212000Y-94144000D01*
X151209598Y-94119614D01*
X151202485Y-94096165D01*
X151190934Y-94074554D01*
X151175388Y-94055612D01*
X151156446Y-94040066D01*
X151134835Y-94028515D01*
X151111386Y-94021402D01*
X151087000Y-94019000D01*
X150837000Y-94019000D01*
X150837000Y-93769000D01*
X150834598Y-93744614D01*
X150827485Y-93721165D01*
X150815934Y-93699554D01*
X150800388Y-93680612D01*
X150781446Y-93665066D01*
X150759835Y-93653515D01*
X150736386Y-93646402D01*
X150712000Y-93644000D01*
X149937000Y-93644000D01*
X149937000Y-89744000D01*
X150712000Y-89744000D01*
X150736386Y-89741598D01*
X150759835Y-89734485D01*
X150781446Y-89722934D01*
X150800388Y-89707388D01*
X150815934Y-89688446D01*
X150827485Y-89666835D01*
X150834598Y-89643386D01*
X150837000Y-89619000D01*
X150837000Y-89369000D01*
X151087000Y-89369000D01*
X151111386Y-89366598D01*
X151134835Y-89359485D01*
X151156446Y-89347934D01*
X151175388Y-89332388D01*
X151190934Y-89313446D01*
X151202485Y-89291835D01*
X151209598Y-89268386D01*
X151212000Y-89244000D01*
X151212000Y-88469000D01*
X155112000Y-88469000D01*
X155112000Y-89244000D01*
X155112000Y-89244000D01*
G37*
G36*
X147442521Y-88856043D02*
X147560334Y-88891781D01*
X147668911Y-88949817D01*
X147764080Y-89027920D01*
X147842183Y-89123089D01*
X147900219Y-89231666D01*
X147935957Y-89349479D01*
X147948024Y-89472000D01*
X147935957Y-89594521D01*
X147900219Y-89712334D01*
X147842183Y-89820911D01*
X147783254Y-89892716D01*
X147769651Y-89913075D01*
X147760274Y-89935713D01*
X147755493Y-89959747D01*
X147755493Y-89984251D01*
X147760273Y-90008285D01*
X147769650Y-90030924D01*
X147783254Y-90051284D01*
X147842183Y-90123089D01*
X147900219Y-90231666D01*
X147935957Y-90349479D01*
X147948024Y-90472000D01*
X147935957Y-90594521D01*
X147900219Y-90712334D01*
X147842183Y-90820911D01*
X147783254Y-90892716D01*
X147769651Y-90913075D01*
X147760274Y-90935713D01*
X147755493Y-90959747D01*
X147755493Y-90984251D01*
X147760273Y-91008285D01*
X147769650Y-91030924D01*
X147783254Y-91051284D01*
X147842183Y-91123089D01*
X147900219Y-91231666D01*
X147935957Y-91349479D01*
X147948024Y-91472000D01*
X147935957Y-91594521D01*
X147900219Y-91712334D01*
X147842183Y-91820911D01*
X147783254Y-91892716D01*
X147769651Y-91913075D01*
X147760274Y-91935713D01*
X147755493Y-91959747D01*
X147755493Y-91984251D01*
X147760273Y-92008285D01*
X147769650Y-92030924D01*
X147783254Y-92051284D01*
X147842183Y-92123089D01*
X147900219Y-92231666D01*
X147935957Y-92349479D01*
X147948024Y-92472000D01*
X147935957Y-92594521D01*
X147908291Y-92685724D01*
X147903512Y-92709748D01*
X147903512Y-92734252D01*
X147908292Y-92758285D01*
X147917670Y-92780924D01*
X147931284Y-92801299D01*
X147945000Y-92815015D01*
X147945000Y-94097000D01*
X146695000Y-94097000D01*
X146695000Y-92814884D01*
X146700478Y-92810388D01*
X146716024Y-92791446D01*
X146727575Y-92769835D01*
X146734688Y-92746386D01*
X146737090Y-92722000D01*
X146734688Y-92697614D01*
X146731712Y-92685734D01*
X146704043Y-92594521D01*
X146691976Y-92472000D01*
X146704043Y-92349479D01*
X146739781Y-92231666D01*
X146797817Y-92123089D01*
X146856746Y-92051284D01*
X146870349Y-92030925D01*
X146879726Y-92008287D01*
X146884507Y-91984253D01*
X146884507Y-91959749D01*
X146879727Y-91935715D01*
X146870350Y-91913076D01*
X146856746Y-91892716D01*
X146797817Y-91820911D01*
X146739781Y-91712334D01*
X146704043Y-91594521D01*
X146691976Y-91472000D01*
X146704043Y-91349479D01*
X146739781Y-91231666D01*
X146797817Y-91123089D01*
X146856746Y-91051284D01*
X146870349Y-91030925D01*
X146879726Y-91008287D01*
X146884507Y-90984253D01*
X146884507Y-90959749D01*
X146879727Y-90935715D01*
X146870350Y-90913076D01*
X146856746Y-90892716D01*
X146797817Y-90820911D01*
X146739781Y-90712334D01*
X146704043Y-90594521D01*
X146691976Y-90472000D01*
X146704043Y-90349479D01*
X146739781Y-90231666D01*
X146797817Y-90123089D01*
X146856746Y-90051284D01*
X146870349Y-90030925D01*
X146879726Y-90008287D01*
X146884507Y-89984253D01*
X146884507Y-89959749D01*
X146879727Y-89935715D01*
X146870350Y-89913076D01*
X146856746Y-89892716D01*
X146797817Y-89820911D01*
X146739781Y-89712334D01*
X146704043Y-89594521D01*
X146691976Y-89472000D01*
X146704043Y-89349479D01*
X146739781Y-89231666D01*
X146797817Y-89123089D01*
X146875920Y-89027920D01*
X146971089Y-88949817D01*
X147079666Y-88891781D01*
X147197479Y-88856043D01*
X147289296Y-88847000D01*
X147350704Y-88847000D01*
X147442521Y-88856043D01*
X147442521Y-88856043D01*
G37*
G36*
X162991530Y-91686710D02*
X163041379Y-91701831D01*
X163087311Y-91726382D01*
X163127574Y-91759426D01*
X163160618Y-91799689D01*
X163185169Y-91845621D01*
X163200290Y-91895470D01*
X163206000Y-91953444D01*
X163206000Y-92958556D01*
X163200290Y-93016530D01*
X163185169Y-93066379D01*
X163160618Y-93112311D01*
X163127574Y-93152574D01*
X163087311Y-93185618D01*
X163041379Y-93210169D01*
X162991530Y-93225290D01*
X162933556Y-93231000D01*
X161678444Y-93231000D01*
X161620470Y-93225290D01*
X161570621Y-93210169D01*
X161524689Y-93185618D01*
X161484426Y-93152574D01*
X161451382Y-93112311D01*
X161426831Y-93066379D01*
X161411710Y-93016530D01*
X161406000Y-92958556D01*
X161406000Y-91953444D01*
X161411710Y-91895470D01*
X161426831Y-91845621D01*
X161451382Y-91799689D01*
X161484426Y-91759426D01*
X161524689Y-91726382D01*
X161570621Y-91701831D01*
X161620470Y-91686710D01*
X161678444Y-91681000D01*
X162933556Y-91681000D01*
X162991530Y-91686710D01*
X162991530Y-91686710D01*
G37*
G36*
X158802530Y-89529710D02*
X158852379Y-89544831D01*
X158898311Y-89569382D01*
X158938574Y-89602426D01*
X158971618Y-89642689D01*
X158996169Y-89688621D01*
X159011290Y-89738470D01*
X159017000Y-89796444D01*
X159017000Y-91051556D01*
X159011290Y-91109530D01*
X158996169Y-91159379D01*
X158971618Y-91205311D01*
X158938574Y-91245574D01*
X158898311Y-91278618D01*
X158852379Y-91303169D01*
X158802530Y-91318290D01*
X158744556Y-91324000D01*
X157739444Y-91324000D01*
X157681470Y-91318290D01*
X157631621Y-91303169D01*
X157585689Y-91278618D01*
X157545426Y-91245574D01*
X157512382Y-91205311D01*
X157487831Y-91159379D01*
X157472710Y-91109530D01*
X157467000Y-91051556D01*
X157467000Y-89796444D01*
X157472710Y-89738470D01*
X157487831Y-89688621D01*
X157512382Y-89642689D01*
X157545426Y-89602426D01*
X157585689Y-89569382D01*
X157631621Y-89544831D01*
X157681470Y-89529710D01*
X157739444Y-89524000D01*
X158744556Y-89524000D01*
X158802530Y-89529710D01*
X158802530Y-89529710D01*
G37*
G36*
X160852530Y-89529710D02*
X160902379Y-89544831D01*
X160948311Y-89569382D01*
X160988574Y-89602426D01*
X161021618Y-89642689D01*
X161046169Y-89688621D01*
X161061290Y-89738470D01*
X161067000Y-89796444D01*
X161067000Y-91051556D01*
X161061290Y-91109530D01*
X161046169Y-91159379D01*
X161021618Y-91205311D01*
X160988574Y-91245574D01*
X160948311Y-91278618D01*
X160902379Y-91303169D01*
X160852530Y-91318290D01*
X160794556Y-91324000D01*
X159789444Y-91324000D01*
X159731470Y-91318290D01*
X159681621Y-91303169D01*
X159635689Y-91278618D01*
X159595426Y-91245574D01*
X159562382Y-91205311D01*
X159537831Y-91159379D01*
X159522710Y-91109530D01*
X159517000Y-91051556D01*
X159517000Y-89796444D01*
X159522710Y-89738470D01*
X159537831Y-89688621D01*
X159562382Y-89642689D01*
X159595426Y-89602426D01*
X159635689Y-89569382D01*
X159681621Y-89544831D01*
X159731470Y-89529710D01*
X159789444Y-89524000D01*
X160794556Y-89524000D01*
X160852530Y-89529710D01*
X160852530Y-89529710D01*
G37*
G36*
X162991530Y-89636710D02*
X163041379Y-89651831D01*
X163087311Y-89676382D01*
X163127574Y-89709426D01*
X163160618Y-89749689D01*
X163185169Y-89795621D01*
X163200290Y-89845470D01*
X163206000Y-89903444D01*
X163206000Y-90908556D01*
X163200290Y-90966530D01*
X163185169Y-91016379D01*
X163160618Y-91062311D01*
X163127574Y-91102574D01*
X163087311Y-91135618D01*
X163041379Y-91160169D01*
X162991530Y-91175290D01*
X162933556Y-91181000D01*
X161678444Y-91181000D01*
X161620470Y-91175290D01*
X161570621Y-91160169D01*
X161524689Y-91135618D01*
X161484426Y-91102574D01*
X161451382Y-91062311D01*
X161426831Y-91016379D01*
X161411710Y-90966530D01*
X161406000Y-90908556D01*
X161406000Y-89903444D01*
X161411710Y-89845470D01*
X161426831Y-89795621D01*
X161451382Y-89749689D01*
X161484426Y-89709426D01*
X161524689Y-89676382D01*
X161570621Y-89651831D01*
X161620470Y-89636710D01*
X161678444Y-89631000D01*
X162933556Y-89631000D01*
X162991530Y-89636710D01*
X162991530Y-89636710D01*
G37*
G36*
X162229530Y-86116710D02*
X162279379Y-86131831D01*
X162325311Y-86156382D01*
X162365574Y-86189426D01*
X162398618Y-86229689D01*
X162423169Y-86275621D01*
X162438290Y-86325470D01*
X162444000Y-86383444D01*
X162444000Y-87388556D01*
X162438290Y-87446530D01*
X162423169Y-87496379D01*
X162398618Y-87542311D01*
X162365574Y-87582574D01*
X162325311Y-87615618D01*
X162279379Y-87640169D01*
X162229530Y-87655290D01*
X162171556Y-87661000D01*
X160916444Y-87661000D01*
X160858470Y-87655290D01*
X160808621Y-87640169D01*
X160762689Y-87615618D01*
X160722426Y-87582574D01*
X160689382Y-87542311D01*
X160664831Y-87496379D01*
X160649710Y-87446530D01*
X160644000Y-87388556D01*
X160644000Y-86383444D01*
X160649710Y-86325470D01*
X160664831Y-86275621D01*
X160689382Y-86229689D01*
X160722426Y-86189426D01*
X160762689Y-86156382D01*
X160808621Y-86131831D01*
X160858470Y-86116710D01*
X160916444Y-86111000D01*
X162171556Y-86111000D01*
X162229530Y-86116710D01*
X162229530Y-86116710D01*
G37*
G36*
X152577530Y-85862710D02*
X152627379Y-85877831D01*
X152673311Y-85902382D01*
X152713574Y-85935426D01*
X152746618Y-85975689D01*
X152771169Y-86021621D01*
X152786290Y-86071470D01*
X152792000Y-86129444D01*
X152792000Y-87134556D01*
X152786290Y-87192530D01*
X152771169Y-87242379D01*
X152746618Y-87288311D01*
X152713574Y-87328574D01*
X152673311Y-87361618D01*
X152627379Y-87386169D01*
X152577530Y-87401290D01*
X152519556Y-87407000D01*
X151264444Y-87407000D01*
X151206470Y-87401290D01*
X151156621Y-87386169D01*
X151110689Y-87361618D01*
X151070426Y-87328574D01*
X151037382Y-87288311D01*
X151012831Y-87242379D01*
X150997710Y-87192530D01*
X150992000Y-87134556D01*
X150992000Y-86129444D01*
X150997710Y-86071470D01*
X151012831Y-86021621D01*
X151037382Y-85975689D01*
X151070426Y-85935426D01*
X151110689Y-85902382D01*
X151156621Y-85877831D01*
X151206470Y-85862710D01*
X151264444Y-85857000D01*
X152519556Y-85857000D01*
X152577530Y-85862710D01*
X152577530Y-85862710D01*
G37*
G36*
X149529530Y-85844710D02*
X149579379Y-85859831D01*
X149625311Y-85884382D01*
X149665574Y-85917426D01*
X149698618Y-85957689D01*
X149723169Y-86003621D01*
X149738290Y-86053470D01*
X149744000Y-86111444D01*
X149744000Y-87116556D01*
X149738290Y-87174530D01*
X149723169Y-87224379D01*
X149698618Y-87270311D01*
X149665574Y-87310574D01*
X149625311Y-87343618D01*
X149579379Y-87368169D01*
X149529530Y-87383290D01*
X149471556Y-87389000D01*
X148216444Y-87389000D01*
X148158470Y-87383290D01*
X148108621Y-87368169D01*
X148062689Y-87343618D01*
X148022426Y-87310574D01*
X147989382Y-87270311D01*
X147964831Y-87224379D01*
X147949710Y-87174530D01*
X147944000Y-87116556D01*
X147944000Y-86111444D01*
X147949710Y-86053470D01*
X147964831Y-86003621D01*
X147989382Y-85957689D01*
X148022426Y-85917426D01*
X148062689Y-85884382D01*
X148108621Y-85859831D01*
X148158470Y-85844710D01*
X148216444Y-85839000D01*
X149471556Y-85839000D01*
X149529530Y-85844710D01*
X149529530Y-85844710D01*
G37*
G36*
X159382000Y-87007000D02*
X157422000Y-87007000D01*
X157422000Y-85957000D01*
X159382000Y-85957000D01*
X159382000Y-87007000D01*
X159382000Y-87007000D01*
G37*
G36*
X156682000Y-87007000D02*
X154722000Y-87007000D01*
X154722000Y-84057000D01*
X156682000Y-84057000D01*
X156682000Y-87007000D01*
X156682000Y-87007000D01*
G37*
G36*
X162229530Y-84066710D02*
X162279379Y-84081831D01*
X162325311Y-84106382D01*
X162365574Y-84139426D01*
X162398618Y-84179689D01*
X162423169Y-84225621D01*
X162438290Y-84275470D01*
X162444000Y-84333444D01*
X162444000Y-85338556D01*
X162438290Y-85396530D01*
X162423169Y-85446379D01*
X162398618Y-85492311D01*
X162365574Y-85532574D01*
X162325311Y-85565618D01*
X162279379Y-85590169D01*
X162229530Y-85605290D01*
X162171556Y-85611000D01*
X160916444Y-85611000D01*
X160858470Y-85605290D01*
X160808621Y-85590169D01*
X160762689Y-85565618D01*
X160722426Y-85532574D01*
X160689382Y-85492311D01*
X160664831Y-85446379D01*
X160649710Y-85396530D01*
X160644000Y-85338556D01*
X160644000Y-84333444D01*
X160649710Y-84275470D01*
X160664831Y-84225621D01*
X160689382Y-84179689D01*
X160722426Y-84139426D01*
X160762689Y-84106382D01*
X160808621Y-84081831D01*
X160858470Y-84066710D01*
X160916444Y-84061000D01*
X162171556Y-84061000D01*
X162229530Y-84066710D01*
X162229530Y-84066710D01*
G37*
G36*
X152577530Y-83812710D02*
X152627379Y-83827831D01*
X152673311Y-83852382D01*
X152713574Y-83885426D01*
X152746618Y-83925689D01*
X152771169Y-83971621D01*
X152786290Y-84021470D01*
X152792000Y-84079444D01*
X152792000Y-85084556D01*
X152786290Y-85142530D01*
X152771169Y-85192379D01*
X152746618Y-85238311D01*
X152713574Y-85278574D01*
X152673311Y-85311618D01*
X152627379Y-85336169D01*
X152577530Y-85351290D01*
X152519556Y-85357000D01*
X151264444Y-85357000D01*
X151206470Y-85351290D01*
X151156621Y-85336169D01*
X151110689Y-85311618D01*
X151070426Y-85278574D01*
X151037382Y-85238311D01*
X151012831Y-85192379D01*
X150997710Y-85142530D01*
X150992000Y-85084556D01*
X150992000Y-84079444D01*
X150997710Y-84021470D01*
X151012831Y-83971621D01*
X151037382Y-83925689D01*
X151070426Y-83885426D01*
X151110689Y-83852382D01*
X151156621Y-83827831D01*
X151206470Y-83812710D01*
X151264444Y-83807000D01*
X152519556Y-83807000D01*
X152577530Y-83812710D01*
X152577530Y-83812710D01*
G37*
G36*
X149529530Y-83794710D02*
X149579379Y-83809831D01*
X149625311Y-83834382D01*
X149665574Y-83867426D01*
X149698618Y-83907689D01*
X149723169Y-83953621D01*
X149738290Y-84003470D01*
X149744000Y-84061444D01*
X149744000Y-85066556D01*
X149738290Y-85124530D01*
X149723169Y-85174379D01*
X149698618Y-85220311D01*
X149665574Y-85260574D01*
X149625311Y-85293618D01*
X149579379Y-85318169D01*
X149529530Y-85333290D01*
X149471556Y-85339000D01*
X148216444Y-85339000D01*
X148158470Y-85333290D01*
X148108621Y-85318169D01*
X148062689Y-85293618D01*
X148022426Y-85260574D01*
X147989382Y-85220311D01*
X147964831Y-85174379D01*
X147949710Y-85124530D01*
X147944000Y-85066556D01*
X147944000Y-84061444D01*
X147949710Y-84003470D01*
X147964831Y-83953621D01*
X147989382Y-83907689D01*
X148022426Y-83867426D01*
X148062689Y-83834382D01*
X148108621Y-83809831D01*
X148158470Y-83794710D01*
X148216444Y-83789000D01*
X149471556Y-83789000D01*
X149529530Y-83794710D01*
X149529530Y-83794710D01*
G37*
G36*
X159382000Y-85107000D02*
X157422000Y-85107000D01*
X157422000Y-84057000D01*
X159382000Y-84057000D01*
X159382000Y-85107000D01*
X159382000Y-85107000D01*
G37*
G36*
X151824521Y-80156043D02*
X151942334Y-80191781D01*
X152050911Y-80249817D01*
X152122716Y-80308746D01*
X152143075Y-80322349D01*
X152165713Y-80331726D01*
X152189747Y-80336507D01*
X152214251Y-80336507D01*
X152238285Y-80331727D01*
X152260924Y-80322350D01*
X152281284Y-80308746D01*
X152353089Y-80249817D01*
X152461666Y-80191781D01*
X152579479Y-80156043D01*
X152671296Y-80147000D01*
X152732704Y-80147000D01*
X152824521Y-80156043D01*
X152942334Y-80191781D01*
X153050911Y-80249817D01*
X153122716Y-80308746D01*
X153143075Y-80322349D01*
X153165713Y-80331726D01*
X153189747Y-80336507D01*
X153214251Y-80336507D01*
X153238285Y-80331727D01*
X153260924Y-80322350D01*
X153281284Y-80308746D01*
X153353089Y-80249817D01*
X153461666Y-80191781D01*
X153579479Y-80156043D01*
X153671296Y-80147000D01*
X153732704Y-80147000D01*
X153824521Y-80156043D01*
X153942334Y-80191781D01*
X154050911Y-80249817D01*
X154122716Y-80308746D01*
X154143075Y-80322349D01*
X154165713Y-80331726D01*
X154189747Y-80336507D01*
X154214251Y-80336507D01*
X154238285Y-80331727D01*
X154260924Y-80322350D01*
X154281284Y-80308746D01*
X154353089Y-80249817D01*
X154461666Y-80191781D01*
X154579479Y-80156043D01*
X154671296Y-80147000D01*
X154732704Y-80147000D01*
X154824521Y-80156043D01*
X154915724Y-80183709D01*
X154939748Y-80188488D01*
X154964252Y-80188488D01*
X154988285Y-80183708D01*
X155010924Y-80174330D01*
X155031299Y-80160716D01*
X155045015Y-80147000D01*
X156327000Y-80147000D01*
X156327000Y-81397000D01*
X155044884Y-81397000D01*
X155040388Y-81391522D01*
X155021446Y-81375976D01*
X154999835Y-81364425D01*
X154976386Y-81357312D01*
X154952000Y-81354910D01*
X154927614Y-81357312D01*
X154915734Y-81360288D01*
X154824521Y-81387957D01*
X154732704Y-81397000D01*
X154671296Y-81397000D01*
X154579479Y-81387957D01*
X154461666Y-81352219D01*
X154353089Y-81294183D01*
X154281284Y-81235254D01*
X154260925Y-81221651D01*
X154238287Y-81212274D01*
X154214253Y-81207493D01*
X154189749Y-81207493D01*
X154165715Y-81212273D01*
X154143076Y-81221650D01*
X154122716Y-81235254D01*
X154050911Y-81294183D01*
X153942334Y-81352219D01*
X153824521Y-81387957D01*
X153732704Y-81397000D01*
X153671296Y-81397000D01*
X153579479Y-81387957D01*
X153461666Y-81352219D01*
X153353089Y-81294183D01*
X153281284Y-81235254D01*
X153260925Y-81221651D01*
X153238287Y-81212274D01*
X153214253Y-81207493D01*
X153189749Y-81207493D01*
X153165715Y-81212273D01*
X153143076Y-81221650D01*
X153122716Y-81235254D01*
X153050911Y-81294183D01*
X152942334Y-81352219D01*
X152824521Y-81387957D01*
X152732704Y-81397000D01*
X152671296Y-81397000D01*
X152579479Y-81387957D01*
X152461666Y-81352219D01*
X152353089Y-81294183D01*
X152281284Y-81235254D01*
X152260925Y-81221651D01*
X152238287Y-81212274D01*
X152214253Y-81207493D01*
X152189749Y-81207493D01*
X152165715Y-81212273D01*
X152143076Y-81221650D01*
X152122716Y-81235254D01*
X152050911Y-81294183D01*
X151942334Y-81352219D01*
X151824521Y-81387957D01*
X151732704Y-81397000D01*
X151671296Y-81397000D01*
X151579479Y-81387957D01*
X151461666Y-81352219D01*
X151353089Y-81294183D01*
X151257920Y-81216080D01*
X151179817Y-81120911D01*
X151121781Y-81012334D01*
X151086043Y-80894521D01*
X151073976Y-80772000D01*
X151086043Y-80649479D01*
X151121781Y-80531666D01*
X151179817Y-80423089D01*
X151257920Y-80327920D01*
X151353089Y-80249817D01*
X151461666Y-80191781D01*
X151579479Y-80156043D01*
X151671296Y-80147000D01*
X151732704Y-80147000D01*
X151824521Y-80156043D01*
X151824521Y-80156043D01*
G37*
M02*
