G04 #@! TF.GenerationSoftware,KiCad,Pcbnew,5.0.0-fee4fd1~66~ubuntu16.04.1*
G04 #@! TF.CreationDate,2018-10-28T21:05:27-03:00*
G04 #@! TF.ProjectId,MMA7361,4D4D41373336312E6B696361645F7063,rev?*
G04 #@! TF.SameCoordinates,Original*
G04 #@! TF.FileFunction,Legend,Bot*
G04 #@! TF.FilePolarity,Positive*
%FSLAX46Y46*%
G04 Gerber Fmt 4.6, Leading zero omitted, Abs format (unit mm)*
G04 Created by KiCad (PCBNEW 5.0.0-fee4fd1~66~ubuntu16.04.1) date Sun Oct 28 21:05:27 2018*
%MOMM*%
%LPD*%
G01*
G04 APERTURE LIST*
%ADD10C,0.200000*%
%ADD11C,0.100000*%
G04 APERTURE END LIST*
D10*
X146547619Y-83285714D02*
X146500000Y-83333333D01*
X146452380Y-83428571D01*
X146452380Y-83666666D01*
X146500000Y-83761904D01*
X146547619Y-83809523D01*
X146642857Y-83857142D01*
X146738095Y-83857142D01*
X146880952Y-83809523D01*
X147452380Y-83238095D01*
X147452380Y-83857142D01*
X146452380Y-84476190D02*
X146452380Y-84571428D01*
X146500000Y-84666666D01*
X146547619Y-84714285D01*
X146642857Y-84761904D01*
X146833333Y-84809523D01*
X147071428Y-84809523D01*
X147261904Y-84761904D01*
X147357142Y-84714285D01*
X147404761Y-84666666D01*
X147452380Y-84571428D01*
X147452380Y-84476190D01*
X147404761Y-84380952D01*
X147357142Y-84333333D01*
X147261904Y-84285714D01*
X147071428Y-84238095D01*
X146833333Y-84238095D01*
X146642857Y-84285714D01*
X146547619Y-84333333D01*
X146500000Y-84380952D01*
X146452380Y-84476190D01*
X147452380Y-85761904D02*
X147452380Y-85190476D01*
X147452380Y-85476190D02*
X146452380Y-85476190D01*
X146595238Y-85380952D01*
X146690476Y-85285714D01*
X146738095Y-85190476D01*
X146880952Y-86333333D02*
X146833333Y-86238095D01*
X146785714Y-86190476D01*
X146690476Y-86142857D01*
X146642857Y-86142857D01*
X146547619Y-86190476D01*
X146500000Y-86238095D01*
X146452380Y-86333333D01*
X146452380Y-86523809D01*
X146500000Y-86619047D01*
X146547619Y-86666666D01*
X146642857Y-86714285D01*
X146690476Y-86714285D01*
X146785714Y-86666666D01*
X146833333Y-86619047D01*
X146880952Y-86523809D01*
X146880952Y-86333333D01*
X146928571Y-86238095D01*
X146976190Y-86190476D01*
X147071428Y-86142857D01*
X147261904Y-86142857D01*
X147357142Y-86190476D01*
X147404761Y-86238095D01*
X147452380Y-86333333D01*
X147452380Y-86523809D01*
X147404761Y-86619047D01*
X147357142Y-86666666D01*
X147261904Y-86714285D01*
X147071428Y-86714285D01*
X146976190Y-86666666D01*
X146928571Y-86619047D01*
X146880952Y-86523809D01*
D11*
X142494000Y-98806000D02*
X142494000Y-78486000D01*
X164846000Y-98806000D02*
X142494000Y-98806000D01*
X164846000Y-78486000D02*
X164846000Y-98806000D01*
X142494000Y-78486000D02*
X164846000Y-78486000D01*
M02*
