G04 #@! TF.GenerationSoftware,KiCad,Pcbnew,5.0.0-fee4fd1~66~ubuntu16.04.1*
G04 #@! TF.CreationDate,2018-10-28T21:05:27-03:00*
G04 #@! TF.ProjectId,MMA7361,4D4D41373336312E6B696361645F7063,rev?*
G04 #@! TF.SameCoordinates,Original*
G04 #@! TF.FileFunction,Paste,Top*
G04 #@! TF.FilePolarity,Positive*
%FSLAX46Y46*%
G04 Gerber Fmt 4.6, Leading zero omitted, Abs format (unit mm)*
G04 Created by KiCad (PCBNEW 5.0.0-fee4fd1~66~ubuntu16.04.1) date Sun Oct 28 21:05:27 2018*
%MOMM*%
%LPD*%
G01*
G04 APERTURE LIST*
%ADD10C,0.100000*%
%ADD11R,4.250000X4.250000*%
%ADD12R,0.500000X0.550000*%
%ADD13R,0.550000X0.500000*%
%ADD14C,1.150000*%
%ADD15R,1.560000X0.650000*%
G04 APERTURE END LIST*
D10*
X142494000Y-98806000D02*
X142494000Y-78486000D01*
X164846000Y-98806000D02*
X142494000Y-98806000D01*
X164846000Y-78486000D02*
X164846000Y-98806000D01*
X142494000Y-78486000D02*
X164846000Y-78486000D01*
D11*
G04 #@! TO.C,U2*
X153162000Y-91694000D03*
D12*
X151662000Y-94444000D03*
X152662000Y-94444000D03*
X153662000Y-94444000D03*
X154662000Y-94444000D03*
D13*
X155912000Y-93194000D03*
X155912000Y-92194000D03*
X155912000Y-91194000D03*
X155912000Y-90194000D03*
D12*
X154662000Y-88944000D03*
X153662000Y-88944000D03*
X152662000Y-88944000D03*
X151662000Y-88944000D03*
D13*
X150412000Y-90194000D03*
X150412000Y-91194000D03*
X150412000Y-92194000D03*
X150412000Y-93194000D03*
G04 #@! TD*
D10*
G04 #@! TO.C,C7*
G36*
X158065505Y-93535204D02*
X158089773Y-93538804D01*
X158113572Y-93544765D01*
X158136671Y-93553030D01*
X158158850Y-93563520D01*
X158179893Y-93576132D01*
X158199599Y-93590747D01*
X158217777Y-93607223D01*
X158234253Y-93625401D01*
X158248868Y-93645107D01*
X158261480Y-93666150D01*
X158271970Y-93688329D01*
X158280235Y-93711428D01*
X158286196Y-93735227D01*
X158289796Y-93759495D01*
X158291000Y-93783999D01*
X158291000Y-94684001D01*
X158289796Y-94708505D01*
X158286196Y-94732773D01*
X158280235Y-94756572D01*
X158271970Y-94779671D01*
X158261480Y-94801850D01*
X158248868Y-94822893D01*
X158234253Y-94842599D01*
X158217777Y-94860777D01*
X158199599Y-94877253D01*
X158179893Y-94891868D01*
X158158850Y-94904480D01*
X158136671Y-94914970D01*
X158113572Y-94923235D01*
X158089773Y-94929196D01*
X158065505Y-94932796D01*
X158041001Y-94934000D01*
X157390999Y-94934000D01*
X157366495Y-94932796D01*
X157342227Y-94929196D01*
X157318428Y-94923235D01*
X157295329Y-94914970D01*
X157273150Y-94904480D01*
X157252107Y-94891868D01*
X157232401Y-94877253D01*
X157214223Y-94860777D01*
X157197747Y-94842599D01*
X157183132Y-94822893D01*
X157170520Y-94801850D01*
X157160030Y-94779671D01*
X157151765Y-94756572D01*
X157145804Y-94732773D01*
X157142204Y-94708505D01*
X157141000Y-94684001D01*
X157141000Y-93783999D01*
X157142204Y-93759495D01*
X157145804Y-93735227D01*
X157151765Y-93711428D01*
X157160030Y-93688329D01*
X157170520Y-93666150D01*
X157183132Y-93645107D01*
X157197747Y-93625401D01*
X157214223Y-93607223D01*
X157232401Y-93590747D01*
X157252107Y-93576132D01*
X157273150Y-93563520D01*
X157295329Y-93553030D01*
X157318428Y-93544765D01*
X157342227Y-93538804D01*
X157366495Y-93535204D01*
X157390999Y-93534000D01*
X158041001Y-93534000D01*
X158065505Y-93535204D01*
X158065505Y-93535204D01*
G37*
D14*
X157716000Y-94234000D03*
D10*
G36*
X160115505Y-93535204D02*
X160139773Y-93538804D01*
X160163572Y-93544765D01*
X160186671Y-93553030D01*
X160208850Y-93563520D01*
X160229893Y-93576132D01*
X160249599Y-93590747D01*
X160267777Y-93607223D01*
X160284253Y-93625401D01*
X160298868Y-93645107D01*
X160311480Y-93666150D01*
X160321970Y-93688329D01*
X160330235Y-93711428D01*
X160336196Y-93735227D01*
X160339796Y-93759495D01*
X160341000Y-93783999D01*
X160341000Y-94684001D01*
X160339796Y-94708505D01*
X160336196Y-94732773D01*
X160330235Y-94756572D01*
X160321970Y-94779671D01*
X160311480Y-94801850D01*
X160298868Y-94822893D01*
X160284253Y-94842599D01*
X160267777Y-94860777D01*
X160249599Y-94877253D01*
X160229893Y-94891868D01*
X160208850Y-94904480D01*
X160186671Y-94914970D01*
X160163572Y-94923235D01*
X160139773Y-94929196D01*
X160115505Y-94932796D01*
X160091001Y-94934000D01*
X159440999Y-94934000D01*
X159416495Y-94932796D01*
X159392227Y-94929196D01*
X159368428Y-94923235D01*
X159345329Y-94914970D01*
X159323150Y-94904480D01*
X159302107Y-94891868D01*
X159282401Y-94877253D01*
X159264223Y-94860777D01*
X159247747Y-94842599D01*
X159233132Y-94822893D01*
X159220520Y-94801850D01*
X159210030Y-94779671D01*
X159201765Y-94756572D01*
X159195804Y-94732773D01*
X159192204Y-94708505D01*
X159191000Y-94684001D01*
X159191000Y-93783999D01*
X159192204Y-93759495D01*
X159195804Y-93735227D01*
X159201765Y-93711428D01*
X159210030Y-93688329D01*
X159220520Y-93666150D01*
X159233132Y-93645107D01*
X159247747Y-93625401D01*
X159264223Y-93607223D01*
X159282401Y-93590747D01*
X159302107Y-93576132D01*
X159323150Y-93563520D01*
X159345329Y-93553030D01*
X159368428Y-93544765D01*
X159392227Y-93538804D01*
X159416495Y-93535204D01*
X159440999Y-93534000D01*
X160091001Y-93534000D01*
X160115505Y-93535204D01*
X160115505Y-93535204D01*
G37*
D14*
X159766000Y-94234000D03*
G04 #@! TD*
D10*
G04 #@! TO.C,C6*
G36*
X160641505Y-89725204D02*
X160665773Y-89728804D01*
X160689572Y-89734765D01*
X160712671Y-89743030D01*
X160734850Y-89753520D01*
X160755893Y-89766132D01*
X160775599Y-89780747D01*
X160793777Y-89797223D01*
X160810253Y-89815401D01*
X160824868Y-89835107D01*
X160837480Y-89856150D01*
X160847970Y-89878329D01*
X160856235Y-89901428D01*
X160862196Y-89925227D01*
X160865796Y-89949495D01*
X160867000Y-89973999D01*
X160867000Y-90874001D01*
X160865796Y-90898505D01*
X160862196Y-90922773D01*
X160856235Y-90946572D01*
X160847970Y-90969671D01*
X160837480Y-90991850D01*
X160824868Y-91012893D01*
X160810253Y-91032599D01*
X160793777Y-91050777D01*
X160775599Y-91067253D01*
X160755893Y-91081868D01*
X160734850Y-91094480D01*
X160712671Y-91104970D01*
X160689572Y-91113235D01*
X160665773Y-91119196D01*
X160641505Y-91122796D01*
X160617001Y-91124000D01*
X159966999Y-91124000D01*
X159942495Y-91122796D01*
X159918227Y-91119196D01*
X159894428Y-91113235D01*
X159871329Y-91104970D01*
X159849150Y-91094480D01*
X159828107Y-91081868D01*
X159808401Y-91067253D01*
X159790223Y-91050777D01*
X159773747Y-91032599D01*
X159759132Y-91012893D01*
X159746520Y-90991850D01*
X159736030Y-90969671D01*
X159727765Y-90946572D01*
X159721804Y-90922773D01*
X159718204Y-90898505D01*
X159717000Y-90874001D01*
X159717000Y-89973999D01*
X159718204Y-89949495D01*
X159721804Y-89925227D01*
X159727765Y-89901428D01*
X159736030Y-89878329D01*
X159746520Y-89856150D01*
X159759132Y-89835107D01*
X159773747Y-89815401D01*
X159790223Y-89797223D01*
X159808401Y-89780747D01*
X159828107Y-89766132D01*
X159849150Y-89753520D01*
X159871329Y-89743030D01*
X159894428Y-89734765D01*
X159918227Y-89728804D01*
X159942495Y-89725204D01*
X159966999Y-89724000D01*
X160617001Y-89724000D01*
X160641505Y-89725204D01*
X160641505Y-89725204D01*
G37*
D14*
X160292000Y-90424000D03*
D10*
G36*
X158591505Y-89725204D02*
X158615773Y-89728804D01*
X158639572Y-89734765D01*
X158662671Y-89743030D01*
X158684850Y-89753520D01*
X158705893Y-89766132D01*
X158725599Y-89780747D01*
X158743777Y-89797223D01*
X158760253Y-89815401D01*
X158774868Y-89835107D01*
X158787480Y-89856150D01*
X158797970Y-89878329D01*
X158806235Y-89901428D01*
X158812196Y-89925227D01*
X158815796Y-89949495D01*
X158817000Y-89973999D01*
X158817000Y-90874001D01*
X158815796Y-90898505D01*
X158812196Y-90922773D01*
X158806235Y-90946572D01*
X158797970Y-90969671D01*
X158787480Y-90991850D01*
X158774868Y-91012893D01*
X158760253Y-91032599D01*
X158743777Y-91050777D01*
X158725599Y-91067253D01*
X158705893Y-91081868D01*
X158684850Y-91094480D01*
X158662671Y-91104970D01*
X158639572Y-91113235D01*
X158615773Y-91119196D01*
X158591505Y-91122796D01*
X158567001Y-91124000D01*
X157916999Y-91124000D01*
X157892495Y-91122796D01*
X157868227Y-91119196D01*
X157844428Y-91113235D01*
X157821329Y-91104970D01*
X157799150Y-91094480D01*
X157778107Y-91081868D01*
X157758401Y-91067253D01*
X157740223Y-91050777D01*
X157723747Y-91032599D01*
X157709132Y-91012893D01*
X157696520Y-90991850D01*
X157686030Y-90969671D01*
X157677765Y-90946572D01*
X157671804Y-90922773D01*
X157668204Y-90898505D01*
X157667000Y-90874001D01*
X157667000Y-89973999D01*
X157668204Y-89949495D01*
X157671804Y-89925227D01*
X157677765Y-89901428D01*
X157686030Y-89878329D01*
X157696520Y-89856150D01*
X157709132Y-89835107D01*
X157723747Y-89815401D01*
X157740223Y-89797223D01*
X157758401Y-89780747D01*
X157778107Y-89766132D01*
X157799150Y-89753520D01*
X157821329Y-89743030D01*
X157844428Y-89734765D01*
X157868227Y-89728804D01*
X157892495Y-89725204D01*
X157916999Y-89724000D01*
X158567001Y-89724000D01*
X158591505Y-89725204D01*
X158591505Y-89725204D01*
G37*
D14*
X158242000Y-90424000D03*
G04 #@! TD*
D10*
G04 #@! TO.C,C5*
G36*
X155044505Y-96075204D02*
X155068773Y-96078804D01*
X155092572Y-96084765D01*
X155115671Y-96093030D01*
X155137850Y-96103520D01*
X155158893Y-96116132D01*
X155178599Y-96130747D01*
X155196777Y-96147223D01*
X155213253Y-96165401D01*
X155227868Y-96185107D01*
X155240480Y-96206150D01*
X155250970Y-96228329D01*
X155259235Y-96251428D01*
X155265196Y-96275227D01*
X155268796Y-96299495D01*
X155270000Y-96323999D01*
X155270000Y-97224001D01*
X155268796Y-97248505D01*
X155265196Y-97272773D01*
X155259235Y-97296572D01*
X155250970Y-97319671D01*
X155240480Y-97341850D01*
X155227868Y-97362893D01*
X155213253Y-97382599D01*
X155196777Y-97400777D01*
X155178599Y-97417253D01*
X155158893Y-97431868D01*
X155137850Y-97444480D01*
X155115671Y-97454970D01*
X155092572Y-97463235D01*
X155068773Y-97469196D01*
X155044505Y-97472796D01*
X155020001Y-97474000D01*
X154369999Y-97474000D01*
X154345495Y-97472796D01*
X154321227Y-97469196D01*
X154297428Y-97463235D01*
X154274329Y-97454970D01*
X154252150Y-97444480D01*
X154231107Y-97431868D01*
X154211401Y-97417253D01*
X154193223Y-97400777D01*
X154176747Y-97382599D01*
X154162132Y-97362893D01*
X154149520Y-97341850D01*
X154139030Y-97319671D01*
X154130765Y-97296572D01*
X154124804Y-97272773D01*
X154121204Y-97248505D01*
X154120000Y-97224001D01*
X154120000Y-96323999D01*
X154121204Y-96299495D01*
X154124804Y-96275227D01*
X154130765Y-96251428D01*
X154139030Y-96228329D01*
X154149520Y-96206150D01*
X154162132Y-96185107D01*
X154176747Y-96165401D01*
X154193223Y-96147223D01*
X154211401Y-96130747D01*
X154231107Y-96116132D01*
X154252150Y-96103520D01*
X154274329Y-96093030D01*
X154297428Y-96084765D01*
X154321227Y-96078804D01*
X154345495Y-96075204D01*
X154369999Y-96074000D01*
X155020001Y-96074000D01*
X155044505Y-96075204D01*
X155044505Y-96075204D01*
G37*
D14*
X154695000Y-96774000D03*
D10*
G36*
X152994505Y-96075204D02*
X153018773Y-96078804D01*
X153042572Y-96084765D01*
X153065671Y-96093030D01*
X153087850Y-96103520D01*
X153108893Y-96116132D01*
X153128599Y-96130747D01*
X153146777Y-96147223D01*
X153163253Y-96165401D01*
X153177868Y-96185107D01*
X153190480Y-96206150D01*
X153200970Y-96228329D01*
X153209235Y-96251428D01*
X153215196Y-96275227D01*
X153218796Y-96299495D01*
X153220000Y-96323999D01*
X153220000Y-97224001D01*
X153218796Y-97248505D01*
X153215196Y-97272773D01*
X153209235Y-97296572D01*
X153200970Y-97319671D01*
X153190480Y-97341850D01*
X153177868Y-97362893D01*
X153163253Y-97382599D01*
X153146777Y-97400777D01*
X153128599Y-97417253D01*
X153108893Y-97431868D01*
X153087850Y-97444480D01*
X153065671Y-97454970D01*
X153042572Y-97463235D01*
X153018773Y-97469196D01*
X152994505Y-97472796D01*
X152970001Y-97474000D01*
X152319999Y-97474000D01*
X152295495Y-97472796D01*
X152271227Y-97469196D01*
X152247428Y-97463235D01*
X152224329Y-97454970D01*
X152202150Y-97444480D01*
X152181107Y-97431868D01*
X152161401Y-97417253D01*
X152143223Y-97400777D01*
X152126747Y-97382599D01*
X152112132Y-97362893D01*
X152099520Y-97341850D01*
X152089030Y-97319671D01*
X152080765Y-97296572D01*
X152074804Y-97272773D01*
X152071204Y-97248505D01*
X152070000Y-97224001D01*
X152070000Y-96323999D01*
X152071204Y-96299495D01*
X152074804Y-96275227D01*
X152080765Y-96251428D01*
X152089030Y-96228329D01*
X152099520Y-96206150D01*
X152112132Y-96185107D01*
X152126747Y-96165401D01*
X152143223Y-96147223D01*
X152161401Y-96130747D01*
X152181107Y-96116132D01*
X152202150Y-96103520D01*
X152224329Y-96093030D01*
X152247428Y-96084765D01*
X152271227Y-96078804D01*
X152295495Y-96075204D01*
X152319999Y-96074000D01*
X152970001Y-96074000D01*
X152994505Y-96075204D01*
X152994505Y-96075204D01*
G37*
D14*
X152645000Y-96774000D03*
G04 #@! TD*
D10*
G04 #@! TO.C,C4*
G36*
X149318505Y-83990204D02*
X149342773Y-83993804D01*
X149366572Y-83999765D01*
X149389671Y-84008030D01*
X149411850Y-84018520D01*
X149432893Y-84031132D01*
X149452599Y-84045747D01*
X149470777Y-84062223D01*
X149487253Y-84080401D01*
X149501868Y-84100107D01*
X149514480Y-84121150D01*
X149524970Y-84143329D01*
X149533235Y-84166428D01*
X149539196Y-84190227D01*
X149542796Y-84214495D01*
X149544000Y-84238999D01*
X149544000Y-84889001D01*
X149542796Y-84913505D01*
X149539196Y-84937773D01*
X149533235Y-84961572D01*
X149524970Y-84984671D01*
X149514480Y-85006850D01*
X149501868Y-85027893D01*
X149487253Y-85047599D01*
X149470777Y-85065777D01*
X149452599Y-85082253D01*
X149432893Y-85096868D01*
X149411850Y-85109480D01*
X149389671Y-85119970D01*
X149366572Y-85128235D01*
X149342773Y-85134196D01*
X149318505Y-85137796D01*
X149294001Y-85139000D01*
X148393999Y-85139000D01*
X148369495Y-85137796D01*
X148345227Y-85134196D01*
X148321428Y-85128235D01*
X148298329Y-85119970D01*
X148276150Y-85109480D01*
X148255107Y-85096868D01*
X148235401Y-85082253D01*
X148217223Y-85065777D01*
X148200747Y-85047599D01*
X148186132Y-85027893D01*
X148173520Y-85006850D01*
X148163030Y-84984671D01*
X148154765Y-84961572D01*
X148148804Y-84937773D01*
X148145204Y-84913505D01*
X148144000Y-84889001D01*
X148144000Y-84238999D01*
X148145204Y-84214495D01*
X148148804Y-84190227D01*
X148154765Y-84166428D01*
X148163030Y-84143329D01*
X148173520Y-84121150D01*
X148186132Y-84100107D01*
X148200747Y-84080401D01*
X148217223Y-84062223D01*
X148235401Y-84045747D01*
X148255107Y-84031132D01*
X148276150Y-84018520D01*
X148298329Y-84008030D01*
X148321428Y-83999765D01*
X148345227Y-83993804D01*
X148369495Y-83990204D01*
X148393999Y-83989000D01*
X149294001Y-83989000D01*
X149318505Y-83990204D01*
X149318505Y-83990204D01*
G37*
D14*
X148844000Y-84564000D03*
D10*
G36*
X149318505Y-86040204D02*
X149342773Y-86043804D01*
X149366572Y-86049765D01*
X149389671Y-86058030D01*
X149411850Y-86068520D01*
X149432893Y-86081132D01*
X149452599Y-86095747D01*
X149470777Y-86112223D01*
X149487253Y-86130401D01*
X149501868Y-86150107D01*
X149514480Y-86171150D01*
X149524970Y-86193329D01*
X149533235Y-86216428D01*
X149539196Y-86240227D01*
X149542796Y-86264495D01*
X149544000Y-86288999D01*
X149544000Y-86939001D01*
X149542796Y-86963505D01*
X149539196Y-86987773D01*
X149533235Y-87011572D01*
X149524970Y-87034671D01*
X149514480Y-87056850D01*
X149501868Y-87077893D01*
X149487253Y-87097599D01*
X149470777Y-87115777D01*
X149452599Y-87132253D01*
X149432893Y-87146868D01*
X149411850Y-87159480D01*
X149389671Y-87169970D01*
X149366572Y-87178235D01*
X149342773Y-87184196D01*
X149318505Y-87187796D01*
X149294001Y-87189000D01*
X148393999Y-87189000D01*
X148369495Y-87187796D01*
X148345227Y-87184196D01*
X148321428Y-87178235D01*
X148298329Y-87169970D01*
X148276150Y-87159480D01*
X148255107Y-87146868D01*
X148235401Y-87132253D01*
X148217223Y-87115777D01*
X148200747Y-87097599D01*
X148186132Y-87077893D01*
X148173520Y-87056850D01*
X148163030Y-87034671D01*
X148154765Y-87011572D01*
X148148804Y-86987773D01*
X148145204Y-86963505D01*
X148144000Y-86939001D01*
X148144000Y-86288999D01*
X148145204Y-86264495D01*
X148148804Y-86240227D01*
X148154765Y-86216428D01*
X148163030Y-86193329D01*
X148173520Y-86171150D01*
X148186132Y-86150107D01*
X148200747Y-86130401D01*
X148217223Y-86112223D01*
X148235401Y-86095747D01*
X148255107Y-86081132D01*
X148276150Y-86068520D01*
X148298329Y-86058030D01*
X148321428Y-86049765D01*
X148345227Y-86043804D01*
X148369495Y-86040204D01*
X148393999Y-86039000D01*
X149294001Y-86039000D01*
X149318505Y-86040204D01*
X149318505Y-86040204D01*
G37*
D14*
X148844000Y-86614000D03*
G04 #@! TD*
D10*
G04 #@! TO.C,C3*
G36*
X150717505Y-96075204D02*
X150741773Y-96078804D01*
X150765572Y-96084765D01*
X150788671Y-96093030D01*
X150810850Y-96103520D01*
X150831893Y-96116132D01*
X150851599Y-96130747D01*
X150869777Y-96147223D01*
X150886253Y-96165401D01*
X150900868Y-96185107D01*
X150913480Y-96206150D01*
X150923970Y-96228329D01*
X150932235Y-96251428D01*
X150938196Y-96275227D01*
X150941796Y-96299495D01*
X150943000Y-96323999D01*
X150943000Y-97224001D01*
X150941796Y-97248505D01*
X150938196Y-97272773D01*
X150932235Y-97296572D01*
X150923970Y-97319671D01*
X150913480Y-97341850D01*
X150900868Y-97362893D01*
X150886253Y-97382599D01*
X150869777Y-97400777D01*
X150851599Y-97417253D01*
X150831893Y-97431868D01*
X150810850Y-97444480D01*
X150788671Y-97454970D01*
X150765572Y-97463235D01*
X150741773Y-97469196D01*
X150717505Y-97472796D01*
X150693001Y-97474000D01*
X150042999Y-97474000D01*
X150018495Y-97472796D01*
X149994227Y-97469196D01*
X149970428Y-97463235D01*
X149947329Y-97454970D01*
X149925150Y-97444480D01*
X149904107Y-97431868D01*
X149884401Y-97417253D01*
X149866223Y-97400777D01*
X149849747Y-97382599D01*
X149835132Y-97362893D01*
X149822520Y-97341850D01*
X149812030Y-97319671D01*
X149803765Y-97296572D01*
X149797804Y-97272773D01*
X149794204Y-97248505D01*
X149793000Y-97224001D01*
X149793000Y-96323999D01*
X149794204Y-96299495D01*
X149797804Y-96275227D01*
X149803765Y-96251428D01*
X149812030Y-96228329D01*
X149822520Y-96206150D01*
X149835132Y-96185107D01*
X149849747Y-96165401D01*
X149866223Y-96147223D01*
X149884401Y-96130747D01*
X149904107Y-96116132D01*
X149925150Y-96103520D01*
X149947329Y-96093030D01*
X149970428Y-96084765D01*
X149994227Y-96078804D01*
X150018495Y-96075204D01*
X150042999Y-96074000D01*
X150693001Y-96074000D01*
X150717505Y-96075204D01*
X150717505Y-96075204D01*
G37*
D14*
X150368000Y-96774000D03*
D10*
G36*
X148667505Y-96075204D02*
X148691773Y-96078804D01*
X148715572Y-96084765D01*
X148738671Y-96093030D01*
X148760850Y-96103520D01*
X148781893Y-96116132D01*
X148801599Y-96130747D01*
X148819777Y-96147223D01*
X148836253Y-96165401D01*
X148850868Y-96185107D01*
X148863480Y-96206150D01*
X148873970Y-96228329D01*
X148882235Y-96251428D01*
X148888196Y-96275227D01*
X148891796Y-96299495D01*
X148893000Y-96323999D01*
X148893000Y-97224001D01*
X148891796Y-97248505D01*
X148888196Y-97272773D01*
X148882235Y-97296572D01*
X148873970Y-97319671D01*
X148863480Y-97341850D01*
X148850868Y-97362893D01*
X148836253Y-97382599D01*
X148819777Y-97400777D01*
X148801599Y-97417253D01*
X148781893Y-97431868D01*
X148760850Y-97444480D01*
X148738671Y-97454970D01*
X148715572Y-97463235D01*
X148691773Y-97469196D01*
X148667505Y-97472796D01*
X148643001Y-97474000D01*
X147992999Y-97474000D01*
X147968495Y-97472796D01*
X147944227Y-97469196D01*
X147920428Y-97463235D01*
X147897329Y-97454970D01*
X147875150Y-97444480D01*
X147854107Y-97431868D01*
X147834401Y-97417253D01*
X147816223Y-97400777D01*
X147799747Y-97382599D01*
X147785132Y-97362893D01*
X147772520Y-97341850D01*
X147762030Y-97319671D01*
X147753765Y-97296572D01*
X147747804Y-97272773D01*
X147744204Y-97248505D01*
X147743000Y-97224001D01*
X147743000Y-96323999D01*
X147744204Y-96299495D01*
X147747804Y-96275227D01*
X147753765Y-96251428D01*
X147762030Y-96228329D01*
X147772520Y-96206150D01*
X147785132Y-96185107D01*
X147799747Y-96165401D01*
X147816223Y-96147223D01*
X147834401Y-96130747D01*
X147854107Y-96116132D01*
X147875150Y-96103520D01*
X147897329Y-96093030D01*
X147920428Y-96084765D01*
X147944227Y-96078804D01*
X147968495Y-96075204D01*
X147992999Y-96074000D01*
X148643001Y-96074000D01*
X148667505Y-96075204D01*
X148667505Y-96075204D01*
G37*
D14*
X148318000Y-96774000D03*
G04 #@! TD*
D10*
G04 #@! TO.C,C2*
G36*
X152366505Y-84008204D02*
X152390773Y-84011804D01*
X152414572Y-84017765D01*
X152437671Y-84026030D01*
X152459850Y-84036520D01*
X152480893Y-84049132D01*
X152500599Y-84063747D01*
X152518777Y-84080223D01*
X152535253Y-84098401D01*
X152549868Y-84118107D01*
X152562480Y-84139150D01*
X152572970Y-84161329D01*
X152581235Y-84184428D01*
X152587196Y-84208227D01*
X152590796Y-84232495D01*
X152592000Y-84256999D01*
X152592000Y-84907001D01*
X152590796Y-84931505D01*
X152587196Y-84955773D01*
X152581235Y-84979572D01*
X152572970Y-85002671D01*
X152562480Y-85024850D01*
X152549868Y-85045893D01*
X152535253Y-85065599D01*
X152518777Y-85083777D01*
X152500599Y-85100253D01*
X152480893Y-85114868D01*
X152459850Y-85127480D01*
X152437671Y-85137970D01*
X152414572Y-85146235D01*
X152390773Y-85152196D01*
X152366505Y-85155796D01*
X152342001Y-85157000D01*
X151441999Y-85157000D01*
X151417495Y-85155796D01*
X151393227Y-85152196D01*
X151369428Y-85146235D01*
X151346329Y-85137970D01*
X151324150Y-85127480D01*
X151303107Y-85114868D01*
X151283401Y-85100253D01*
X151265223Y-85083777D01*
X151248747Y-85065599D01*
X151234132Y-85045893D01*
X151221520Y-85024850D01*
X151211030Y-85002671D01*
X151202765Y-84979572D01*
X151196804Y-84955773D01*
X151193204Y-84931505D01*
X151192000Y-84907001D01*
X151192000Y-84256999D01*
X151193204Y-84232495D01*
X151196804Y-84208227D01*
X151202765Y-84184428D01*
X151211030Y-84161329D01*
X151221520Y-84139150D01*
X151234132Y-84118107D01*
X151248747Y-84098401D01*
X151265223Y-84080223D01*
X151283401Y-84063747D01*
X151303107Y-84049132D01*
X151324150Y-84036520D01*
X151346329Y-84026030D01*
X151369428Y-84017765D01*
X151393227Y-84011804D01*
X151417495Y-84008204D01*
X151441999Y-84007000D01*
X152342001Y-84007000D01*
X152366505Y-84008204D01*
X152366505Y-84008204D01*
G37*
D14*
X151892000Y-84582000D03*
D10*
G36*
X152366505Y-86058204D02*
X152390773Y-86061804D01*
X152414572Y-86067765D01*
X152437671Y-86076030D01*
X152459850Y-86086520D01*
X152480893Y-86099132D01*
X152500599Y-86113747D01*
X152518777Y-86130223D01*
X152535253Y-86148401D01*
X152549868Y-86168107D01*
X152562480Y-86189150D01*
X152572970Y-86211329D01*
X152581235Y-86234428D01*
X152587196Y-86258227D01*
X152590796Y-86282495D01*
X152592000Y-86306999D01*
X152592000Y-86957001D01*
X152590796Y-86981505D01*
X152587196Y-87005773D01*
X152581235Y-87029572D01*
X152572970Y-87052671D01*
X152562480Y-87074850D01*
X152549868Y-87095893D01*
X152535253Y-87115599D01*
X152518777Y-87133777D01*
X152500599Y-87150253D01*
X152480893Y-87164868D01*
X152459850Y-87177480D01*
X152437671Y-87187970D01*
X152414572Y-87196235D01*
X152390773Y-87202196D01*
X152366505Y-87205796D01*
X152342001Y-87207000D01*
X151441999Y-87207000D01*
X151417495Y-87205796D01*
X151393227Y-87202196D01*
X151369428Y-87196235D01*
X151346329Y-87187970D01*
X151324150Y-87177480D01*
X151303107Y-87164868D01*
X151283401Y-87150253D01*
X151265223Y-87133777D01*
X151248747Y-87115599D01*
X151234132Y-87095893D01*
X151221520Y-87074850D01*
X151211030Y-87052671D01*
X151202765Y-87029572D01*
X151196804Y-87005773D01*
X151193204Y-86981505D01*
X151192000Y-86957001D01*
X151192000Y-86306999D01*
X151193204Y-86282495D01*
X151196804Y-86258227D01*
X151202765Y-86234428D01*
X151211030Y-86211329D01*
X151221520Y-86189150D01*
X151234132Y-86168107D01*
X151248747Y-86148401D01*
X151265223Y-86130223D01*
X151283401Y-86113747D01*
X151303107Y-86099132D01*
X151324150Y-86086520D01*
X151346329Y-86076030D01*
X151369428Y-86067765D01*
X151393227Y-86061804D01*
X151417495Y-86058204D01*
X151441999Y-86057000D01*
X152342001Y-86057000D01*
X152366505Y-86058204D01*
X152366505Y-86058204D01*
G37*
D14*
X151892000Y-86632000D03*
G04 #@! TD*
D10*
G04 #@! TO.C,C1*
G36*
X160133505Y-96075204D02*
X160157773Y-96078804D01*
X160181572Y-96084765D01*
X160204671Y-96093030D01*
X160226850Y-96103520D01*
X160247893Y-96116132D01*
X160267599Y-96130747D01*
X160285777Y-96147223D01*
X160302253Y-96165401D01*
X160316868Y-96185107D01*
X160329480Y-96206150D01*
X160339970Y-96228329D01*
X160348235Y-96251428D01*
X160354196Y-96275227D01*
X160357796Y-96299495D01*
X160359000Y-96323999D01*
X160359000Y-97224001D01*
X160357796Y-97248505D01*
X160354196Y-97272773D01*
X160348235Y-97296572D01*
X160339970Y-97319671D01*
X160329480Y-97341850D01*
X160316868Y-97362893D01*
X160302253Y-97382599D01*
X160285777Y-97400777D01*
X160267599Y-97417253D01*
X160247893Y-97431868D01*
X160226850Y-97444480D01*
X160204671Y-97454970D01*
X160181572Y-97463235D01*
X160157773Y-97469196D01*
X160133505Y-97472796D01*
X160109001Y-97474000D01*
X159458999Y-97474000D01*
X159434495Y-97472796D01*
X159410227Y-97469196D01*
X159386428Y-97463235D01*
X159363329Y-97454970D01*
X159341150Y-97444480D01*
X159320107Y-97431868D01*
X159300401Y-97417253D01*
X159282223Y-97400777D01*
X159265747Y-97382599D01*
X159251132Y-97362893D01*
X159238520Y-97341850D01*
X159228030Y-97319671D01*
X159219765Y-97296572D01*
X159213804Y-97272773D01*
X159210204Y-97248505D01*
X159209000Y-97224001D01*
X159209000Y-96323999D01*
X159210204Y-96299495D01*
X159213804Y-96275227D01*
X159219765Y-96251428D01*
X159228030Y-96228329D01*
X159238520Y-96206150D01*
X159251132Y-96185107D01*
X159265747Y-96165401D01*
X159282223Y-96147223D01*
X159300401Y-96130747D01*
X159320107Y-96116132D01*
X159341150Y-96103520D01*
X159363329Y-96093030D01*
X159386428Y-96084765D01*
X159410227Y-96078804D01*
X159434495Y-96075204D01*
X159458999Y-96074000D01*
X160109001Y-96074000D01*
X160133505Y-96075204D01*
X160133505Y-96075204D01*
G37*
D14*
X159784000Y-96774000D03*
D10*
G36*
X158083505Y-96075204D02*
X158107773Y-96078804D01*
X158131572Y-96084765D01*
X158154671Y-96093030D01*
X158176850Y-96103520D01*
X158197893Y-96116132D01*
X158217599Y-96130747D01*
X158235777Y-96147223D01*
X158252253Y-96165401D01*
X158266868Y-96185107D01*
X158279480Y-96206150D01*
X158289970Y-96228329D01*
X158298235Y-96251428D01*
X158304196Y-96275227D01*
X158307796Y-96299495D01*
X158309000Y-96323999D01*
X158309000Y-97224001D01*
X158307796Y-97248505D01*
X158304196Y-97272773D01*
X158298235Y-97296572D01*
X158289970Y-97319671D01*
X158279480Y-97341850D01*
X158266868Y-97362893D01*
X158252253Y-97382599D01*
X158235777Y-97400777D01*
X158217599Y-97417253D01*
X158197893Y-97431868D01*
X158176850Y-97444480D01*
X158154671Y-97454970D01*
X158131572Y-97463235D01*
X158107773Y-97469196D01*
X158083505Y-97472796D01*
X158059001Y-97474000D01*
X157408999Y-97474000D01*
X157384495Y-97472796D01*
X157360227Y-97469196D01*
X157336428Y-97463235D01*
X157313329Y-97454970D01*
X157291150Y-97444480D01*
X157270107Y-97431868D01*
X157250401Y-97417253D01*
X157232223Y-97400777D01*
X157215747Y-97382599D01*
X157201132Y-97362893D01*
X157188520Y-97341850D01*
X157178030Y-97319671D01*
X157169765Y-97296572D01*
X157163804Y-97272773D01*
X157160204Y-97248505D01*
X157159000Y-97224001D01*
X157159000Y-96323999D01*
X157160204Y-96299495D01*
X157163804Y-96275227D01*
X157169765Y-96251428D01*
X157178030Y-96228329D01*
X157188520Y-96206150D01*
X157201132Y-96185107D01*
X157215747Y-96165401D01*
X157232223Y-96147223D01*
X157250401Y-96130747D01*
X157270107Y-96116132D01*
X157291150Y-96103520D01*
X157313329Y-96093030D01*
X157336428Y-96084765D01*
X157360227Y-96078804D01*
X157384495Y-96075204D01*
X157408999Y-96074000D01*
X158059001Y-96074000D01*
X158083505Y-96075204D01*
X158083505Y-96075204D01*
G37*
D14*
X157734000Y-96774000D03*
G04 #@! TD*
D10*
G04 #@! TO.C,D1*
G36*
X162780505Y-91882204D02*
X162804773Y-91885804D01*
X162828572Y-91891765D01*
X162851671Y-91900030D01*
X162873850Y-91910520D01*
X162894893Y-91923132D01*
X162914599Y-91937747D01*
X162932777Y-91954223D01*
X162949253Y-91972401D01*
X162963868Y-91992107D01*
X162976480Y-92013150D01*
X162986970Y-92035329D01*
X162995235Y-92058428D01*
X163001196Y-92082227D01*
X163004796Y-92106495D01*
X163006000Y-92130999D01*
X163006000Y-92781001D01*
X163004796Y-92805505D01*
X163001196Y-92829773D01*
X162995235Y-92853572D01*
X162986970Y-92876671D01*
X162976480Y-92898850D01*
X162963868Y-92919893D01*
X162949253Y-92939599D01*
X162932777Y-92957777D01*
X162914599Y-92974253D01*
X162894893Y-92988868D01*
X162873850Y-93001480D01*
X162851671Y-93011970D01*
X162828572Y-93020235D01*
X162804773Y-93026196D01*
X162780505Y-93029796D01*
X162756001Y-93031000D01*
X161855999Y-93031000D01*
X161831495Y-93029796D01*
X161807227Y-93026196D01*
X161783428Y-93020235D01*
X161760329Y-93011970D01*
X161738150Y-93001480D01*
X161717107Y-92988868D01*
X161697401Y-92974253D01*
X161679223Y-92957777D01*
X161662747Y-92939599D01*
X161648132Y-92919893D01*
X161635520Y-92898850D01*
X161625030Y-92876671D01*
X161616765Y-92853572D01*
X161610804Y-92829773D01*
X161607204Y-92805505D01*
X161606000Y-92781001D01*
X161606000Y-92130999D01*
X161607204Y-92106495D01*
X161610804Y-92082227D01*
X161616765Y-92058428D01*
X161625030Y-92035329D01*
X161635520Y-92013150D01*
X161648132Y-91992107D01*
X161662747Y-91972401D01*
X161679223Y-91954223D01*
X161697401Y-91937747D01*
X161717107Y-91923132D01*
X161738150Y-91910520D01*
X161760329Y-91900030D01*
X161783428Y-91891765D01*
X161807227Y-91885804D01*
X161831495Y-91882204D01*
X161855999Y-91881000D01*
X162756001Y-91881000D01*
X162780505Y-91882204D01*
X162780505Y-91882204D01*
G37*
D14*
X162306000Y-92456000D03*
D10*
G36*
X162780505Y-89832204D02*
X162804773Y-89835804D01*
X162828572Y-89841765D01*
X162851671Y-89850030D01*
X162873850Y-89860520D01*
X162894893Y-89873132D01*
X162914599Y-89887747D01*
X162932777Y-89904223D01*
X162949253Y-89922401D01*
X162963868Y-89942107D01*
X162976480Y-89963150D01*
X162986970Y-89985329D01*
X162995235Y-90008428D01*
X163001196Y-90032227D01*
X163004796Y-90056495D01*
X163006000Y-90080999D01*
X163006000Y-90731001D01*
X163004796Y-90755505D01*
X163001196Y-90779773D01*
X162995235Y-90803572D01*
X162986970Y-90826671D01*
X162976480Y-90848850D01*
X162963868Y-90869893D01*
X162949253Y-90889599D01*
X162932777Y-90907777D01*
X162914599Y-90924253D01*
X162894893Y-90938868D01*
X162873850Y-90951480D01*
X162851671Y-90961970D01*
X162828572Y-90970235D01*
X162804773Y-90976196D01*
X162780505Y-90979796D01*
X162756001Y-90981000D01*
X161855999Y-90981000D01*
X161831495Y-90979796D01*
X161807227Y-90976196D01*
X161783428Y-90970235D01*
X161760329Y-90961970D01*
X161738150Y-90951480D01*
X161717107Y-90938868D01*
X161697401Y-90924253D01*
X161679223Y-90907777D01*
X161662747Y-90889599D01*
X161648132Y-90869893D01*
X161635520Y-90848850D01*
X161625030Y-90826671D01*
X161616765Y-90803572D01*
X161610804Y-90779773D01*
X161607204Y-90755505D01*
X161606000Y-90731001D01*
X161606000Y-90080999D01*
X161607204Y-90056495D01*
X161610804Y-90032227D01*
X161616765Y-90008428D01*
X161625030Y-89985329D01*
X161635520Y-89963150D01*
X161648132Y-89942107D01*
X161662747Y-89922401D01*
X161679223Y-89904223D01*
X161697401Y-89887747D01*
X161717107Y-89873132D01*
X161738150Y-89860520D01*
X161760329Y-89850030D01*
X161783428Y-89841765D01*
X161807227Y-89835804D01*
X161831495Y-89832204D01*
X161855999Y-89831000D01*
X162756001Y-89831000D01*
X162780505Y-89832204D01*
X162780505Y-89832204D01*
G37*
D14*
X162306000Y-90406000D03*
G04 #@! TD*
D15*
G04 #@! TO.C,U1*
X155702000Y-84582000D03*
X155702000Y-85532000D03*
X155702000Y-86482000D03*
X158402000Y-86482000D03*
X158402000Y-84582000D03*
G04 #@! TD*
D10*
G04 #@! TO.C,R1*
G36*
X162018505Y-86312204D02*
X162042773Y-86315804D01*
X162066572Y-86321765D01*
X162089671Y-86330030D01*
X162111850Y-86340520D01*
X162132893Y-86353132D01*
X162152599Y-86367747D01*
X162170777Y-86384223D01*
X162187253Y-86402401D01*
X162201868Y-86422107D01*
X162214480Y-86443150D01*
X162224970Y-86465329D01*
X162233235Y-86488428D01*
X162239196Y-86512227D01*
X162242796Y-86536495D01*
X162244000Y-86560999D01*
X162244000Y-87211001D01*
X162242796Y-87235505D01*
X162239196Y-87259773D01*
X162233235Y-87283572D01*
X162224970Y-87306671D01*
X162214480Y-87328850D01*
X162201868Y-87349893D01*
X162187253Y-87369599D01*
X162170777Y-87387777D01*
X162152599Y-87404253D01*
X162132893Y-87418868D01*
X162111850Y-87431480D01*
X162089671Y-87441970D01*
X162066572Y-87450235D01*
X162042773Y-87456196D01*
X162018505Y-87459796D01*
X161994001Y-87461000D01*
X161093999Y-87461000D01*
X161069495Y-87459796D01*
X161045227Y-87456196D01*
X161021428Y-87450235D01*
X160998329Y-87441970D01*
X160976150Y-87431480D01*
X160955107Y-87418868D01*
X160935401Y-87404253D01*
X160917223Y-87387777D01*
X160900747Y-87369599D01*
X160886132Y-87349893D01*
X160873520Y-87328850D01*
X160863030Y-87306671D01*
X160854765Y-87283572D01*
X160848804Y-87259773D01*
X160845204Y-87235505D01*
X160844000Y-87211001D01*
X160844000Y-86560999D01*
X160845204Y-86536495D01*
X160848804Y-86512227D01*
X160854765Y-86488428D01*
X160863030Y-86465329D01*
X160873520Y-86443150D01*
X160886132Y-86422107D01*
X160900747Y-86402401D01*
X160917223Y-86384223D01*
X160935401Y-86367747D01*
X160955107Y-86353132D01*
X160976150Y-86340520D01*
X160998329Y-86330030D01*
X161021428Y-86321765D01*
X161045227Y-86315804D01*
X161069495Y-86312204D01*
X161093999Y-86311000D01*
X161994001Y-86311000D01*
X162018505Y-86312204D01*
X162018505Y-86312204D01*
G37*
D14*
X161544000Y-86886000D03*
D10*
G36*
X162018505Y-84262204D02*
X162042773Y-84265804D01*
X162066572Y-84271765D01*
X162089671Y-84280030D01*
X162111850Y-84290520D01*
X162132893Y-84303132D01*
X162152599Y-84317747D01*
X162170777Y-84334223D01*
X162187253Y-84352401D01*
X162201868Y-84372107D01*
X162214480Y-84393150D01*
X162224970Y-84415329D01*
X162233235Y-84438428D01*
X162239196Y-84462227D01*
X162242796Y-84486495D01*
X162244000Y-84510999D01*
X162244000Y-85161001D01*
X162242796Y-85185505D01*
X162239196Y-85209773D01*
X162233235Y-85233572D01*
X162224970Y-85256671D01*
X162214480Y-85278850D01*
X162201868Y-85299893D01*
X162187253Y-85319599D01*
X162170777Y-85337777D01*
X162152599Y-85354253D01*
X162132893Y-85368868D01*
X162111850Y-85381480D01*
X162089671Y-85391970D01*
X162066572Y-85400235D01*
X162042773Y-85406196D01*
X162018505Y-85409796D01*
X161994001Y-85411000D01*
X161093999Y-85411000D01*
X161069495Y-85409796D01*
X161045227Y-85406196D01*
X161021428Y-85400235D01*
X160998329Y-85391970D01*
X160976150Y-85381480D01*
X160955107Y-85368868D01*
X160935401Y-85354253D01*
X160917223Y-85337777D01*
X160900747Y-85319599D01*
X160886132Y-85299893D01*
X160873520Y-85278850D01*
X160863030Y-85256671D01*
X160854765Y-85233572D01*
X160848804Y-85209773D01*
X160845204Y-85185505D01*
X160844000Y-85161001D01*
X160844000Y-84510999D01*
X160845204Y-84486495D01*
X160848804Y-84462227D01*
X160854765Y-84438428D01*
X160863030Y-84415329D01*
X160873520Y-84393150D01*
X160886132Y-84372107D01*
X160900747Y-84352401D01*
X160917223Y-84334223D01*
X160935401Y-84317747D01*
X160955107Y-84303132D01*
X160976150Y-84290520D01*
X160998329Y-84280030D01*
X161021428Y-84271765D01*
X161045227Y-84265804D01*
X161069495Y-84262204D01*
X161093999Y-84261000D01*
X161994001Y-84261000D01*
X162018505Y-84262204D01*
X162018505Y-84262204D01*
G37*
D14*
X161544000Y-84836000D03*
G04 #@! TD*
M02*
