G04 #@! TF.GenerationSoftware,KiCad,Pcbnew,5.0.0-fee4fd1~66~ubuntu16.04.1*
G04 #@! TF.CreationDate,2018-10-28T21:05:27-03:00*
G04 #@! TF.ProjectId,MMA7361,4D4D41373336312E6B696361645F7063,rev?*
G04 #@! TF.SameCoordinates,Original*
G04 #@! TF.FileFunction,Legend,Top*
G04 #@! TF.FilePolarity,Positive*
%FSLAX46Y46*%
G04 Gerber Fmt 4.6, Leading zero omitted, Abs format (unit mm)*
G04 Created by KiCad (PCBNEW 5.0.0-fee4fd1~66~ubuntu16.04.1) date Sun Oct 28 21:05:27 2018*
%MOMM*%
%LPD*%
G01*
G04 APERTURE LIST*
%ADD10C,0.200000*%
%ADD11C,0.100000*%
%ADD12C,0.127000*%
%ADD13C,0.120000*%
%ADD14C,0.050000*%
%ADD15C,0.150000*%
G04 APERTURE END LIST*
D10*
X158666666Y-80602380D02*
X158666666Y-79602380D01*
X159000000Y-80316666D01*
X159333333Y-79602380D01*
X159333333Y-80602380D01*
X159809523Y-80602380D02*
X159809523Y-79602380D01*
X160142857Y-80316666D01*
X160476190Y-79602380D01*
X160476190Y-80602380D01*
X160904761Y-80316666D02*
X161380952Y-80316666D01*
X160809523Y-80602380D02*
X161142857Y-79602380D01*
X161476190Y-80602380D01*
X158238095Y-81302380D02*
X158904761Y-81302380D01*
X158476190Y-82302380D01*
X159190476Y-81302380D02*
X159809523Y-81302380D01*
X159476190Y-81683333D01*
X159619047Y-81683333D01*
X159714285Y-81730952D01*
X159761904Y-81778571D01*
X159809523Y-81873809D01*
X159809523Y-82111904D01*
X159761904Y-82207142D01*
X159714285Y-82254761D01*
X159619047Y-82302380D01*
X159333333Y-82302380D01*
X159238095Y-82254761D01*
X159190476Y-82207142D01*
X160666666Y-81302380D02*
X160476190Y-81302380D01*
X160380952Y-81350000D01*
X160333333Y-81397619D01*
X160238095Y-81540476D01*
X160190476Y-81730952D01*
X160190476Y-82111904D01*
X160238095Y-82207142D01*
X160285714Y-82254761D01*
X160380952Y-82302380D01*
X160571428Y-82302380D01*
X160666666Y-82254761D01*
X160714285Y-82207142D01*
X160761904Y-82111904D01*
X160761904Y-81873809D01*
X160714285Y-81778571D01*
X160666666Y-81730952D01*
X160571428Y-81683333D01*
X160380952Y-81683333D01*
X160285714Y-81730952D01*
X160238095Y-81778571D01*
X160190476Y-81873809D01*
X161714285Y-82302380D02*
X161142857Y-82302380D01*
X161428571Y-82302380D02*
X161428571Y-81302380D01*
X161333333Y-81445238D01*
X161238095Y-81540476D01*
X161142857Y-81588095D01*
D11*
X142494000Y-98806000D02*
X142494000Y-78486000D01*
X164846000Y-98806000D02*
X142494000Y-98806000D01*
X164846000Y-78486000D02*
X164846000Y-98806000D01*
X142494000Y-78486000D02*
X164846000Y-78486000D01*
D12*
G04 #@! TO.C,U2*
X150662000Y-88694000D02*
X150162000Y-88694000D01*
X150162000Y-88694000D02*
X150162000Y-89194000D01*
X155662000Y-88694000D02*
X156162000Y-88694000D01*
X156162000Y-88694000D02*
X156162000Y-89194000D01*
X150162000Y-94194000D02*
X150162000Y-94694000D01*
X150162000Y-94694000D02*
X150662000Y-94694000D01*
X155662000Y-94694000D02*
X156162000Y-94694000D01*
X156162000Y-94694000D02*
X156162000Y-94194000D01*
D11*
X149874300Y-95194000D02*
G75*
G03X149874300Y-95194000I-412300J0D01*
G01*
D13*
G04 #@! TO.C,J2*
X156387000Y-80077000D02*
X156387000Y-80772000D01*
X155702000Y-80077000D02*
X156387000Y-80077000D01*
X155017000Y-81380276D02*
X155017000Y-81467000D01*
X155017000Y-80077000D02*
X155017000Y-80163724D01*
X155017000Y-81467000D02*
X151142000Y-81467000D01*
X155017000Y-80077000D02*
X151142000Y-80077000D01*
X151142000Y-81166493D02*
X151142000Y-81467000D01*
X151142000Y-80077000D02*
X151142000Y-80377507D01*
G04 #@! TO.C,J1*
X148015000Y-88912000D02*
X147714493Y-88912000D01*
X146925507Y-88912000D02*
X146625000Y-88912000D01*
X148015000Y-92787000D02*
X148015000Y-88912000D01*
X146625000Y-92787000D02*
X146625000Y-88912000D01*
X148015000Y-92787000D02*
X147928276Y-92787000D01*
X146711724Y-92787000D02*
X146625000Y-92787000D01*
X148015000Y-93472000D02*
X148015000Y-94157000D01*
X148015000Y-94157000D02*
X147320000Y-94157000D01*
G04 #@! TO.C,C7*
X158479748Y-93524000D02*
X159002252Y-93524000D01*
X158479748Y-94944000D02*
X159002252Y-94944000D01*
G04 #@! TO.C,C6*
X159005748Y-91134000D02*
X159528252Y-91134000D01*
X159005748Y-89714000D02*
X159528252Y-89714000D01*
G04 #@! TO.C,C5*
X153931252Y-97484000D02*
X153408748Y-97484000D01*
X153931252Y-96064000D02*
X153408748Y-96064000D01*
G04 #@! TO.C,C4*
X149554000Y-85850252D02*
X149554000Y-85327748D01*
X148134000Y-85850252D02*
X148134000Y-85327748D01*
G04 #@! TO.C,C3*
X149604252Y-97484000D02*
X149081748Y-97484000D01*
X149604252Y-96064000D02*
X149081748Y-96064000D01*
G04 #@! TO.C,C2*
X152602000Y-85868252D02*
X152602000Y-85345748D01*
X151182000Y-85868252D02*
X151182000Y-85345748D01*
G04 #@! TO.C,C1*
X159020252Y-97484000D02*
X158497748Y-97484000D01*
X159020252Y-96064000D02*
X158497748Y-96064000D01*
G04 #@! TO.C,D1*
X161346000Y-90431000D02*
X161346000Y-93291000D01*
X161346000Y-93291000D02*
X163266000Y-93291000D01*
X163266000Y-93291000D02*
X163266000Y-90431000D01*
G04 #@! TO.C,U1*
X156152000Y-87142000D02*
X157952000Y-87142000D01*
X157952000Y-83922000D02*
X155502000Y-83922000D01*
G04 #@! TO.C,R1*
X160834000Y-86122252D02*
X160834000Y-85599748D01*
X162254000Y-86122252D02*
X162254000Y-85599748D01*
G04 #@! TD*
G04 #@! TO.C,U2*
D14*
X148741264Y-91255033D02*
X148741264Y-91903940D01*
X148779435Y-91980282D01*
X148817606Y-92018453D01*
X148893948Y-92056624D01*
X149046632Y-92056624D01*
X149122974Y-92018453D01*
X149161145Y-91980282D01*
X149199316Y-91903940D01*
X149199316Y-91255033D01*
X149542855Y-91331375D02*
X149581026Y-91293204D01*
X149657368Y-91255033D01*
X149848223Y-91255033D01*
X149924565Y-91293204D01*
X149962736Y-91331375D01*
X150000907Y-91407717D01*
X150000907Y-91484059D01*
X149962736Y-91598572D01*
X149504684Y-92056624D01*
X150000907Y-92056624D01*
X149949602Y-88256250D02*
X149949602Y-87455486D01*
X150216523Y-88027460D01*
X150483444Y-87455486D01*
X150483444Y-88256250D01*
X150864760Y-88256250D02*
X150864760Y-87455486D01*
X151131682Y-88027460D01*
X151398603Y-87455486D01*
X151398603Y-88256250D01*
X151741788Y-88027460D02*
X152123104Y-88027460D01*
X151665524Y-88256250D02*
X151932446Y-87455486D01*
X152199367Y-88256250D01*
X152390025Y-87455486D02*
X152923868Y-87455486D01*
X152580683Y-88256250D01*
X153190789Y-87531749D02*
X153228921Y-87493618D01*
X153305184Y-87455486D01*
X153495842Y-87455486D01*
X153572105Y-87493618D01*
X153610237Y-87531749D01*
X153648369Y-87608012D01*
X153648369Y-87684276D01*
X153610237Y-87798670D01*
X153152658Y-88256250D01*
X153648369Y-88256250D01*
X154334738Y-87455486D02*
X154182211Y-87455486D01*
X154105948Y-87493618D01*
X154067816Y-87531749D01*
X153991553Y-87646144D01*
X153953422Y-87798670D01*
X153953422Y-88103723D01*
X153991553Y-88179987D01*
X154029685Y-88218118D01*
X154105948Y-88256250D01*
X154258475Y-88256250D01*
X154334738Y-88218118D01*
X154372869Y-88179987D01*
X154411001Y-88103723D01*
X154411001Y-87913065D01*
X154372869Y-87836802D01*
X154334738Y-87798670D01*
X154258475Y-87760539D01*
X154105948Y-87760539D01*
X154029685Y-87798670D01*
X153991553Y-87836802D01*
X153953422Y-87913065D01*
X154906712Y-87455486D02*
X154982975Y-87455486D01*
X155059239Y-87493618D01*
X155097370Y-87531749D01*
X155135502Y-87608012D01*
X155173633Y-87760539D01*
X155173633Y-87951197D01*
X155135502Y-88103723D01*
X155097370Y-88179987D01*
X155059239Y-88218118D01*
X154982975Y-88256250D01*
X154906712Y-88256250D01*
X154830449Y-88218118D01*
X154792317Y-88179987D01*
X154754186Y-88103723D01*
X154716054Y-87951197D01*
X154716054Y-87760539D01*
X154754186Y-87608012D01*
X154792317Y-87531749D01*
X154830449Y-87493618D01*
X154906712Y-87455486D01*
X156050661Y-88332513D02*
X155974397Y-88294382D01*
X155898134Y-88218118D01*
X155783739Y-88103723D01*
X155707476Y-88065592D01*
X155631213Y-88065592D01*
X155669344Y-88256250D02*
X155593081Y-88218118D01*
X155516818Y-88141855D01*
X155478686Y-87989329D01*
X155478686Y-87722407D01*
X155516818Y-87569881D01*
X155593081Y-87493618D01*
X155669344Y-87455486D01*
X155821871Y-87455486D01*
X155898134Y-87493618D01*
X155974397Y-87569881D01*
X156012529Y-87722407D01*
X156012529Y-87989329D01*
X155974397Y-88141855D01*
X155898134Y-88218118D01*
X155821871Y-88256250D01*
X155669344Y-88256250D01*
G04 #@! TO.C,J2*
D15*
X149399666Y-80033880D02*
X149399666Y-80748166D01*
X149352047Y-80891023D01*
X149256809Y-80986261D01*
X149113952Y-81033880D01*
X149018714Y-81033880D01*
X149828238Y-80129119D02*
X149875857Y-80081500D01*
X149971095Y-80033880D01*
X150209190Y-80033880D01*
X150304428Y-80081500D01*
X150352047Y-80129119D01*
X150399666Y-80224357D01*
X150399666Y-80319595D01*
X150352047Y-80462452D01*
X149780619Y-81033880D01*
X150399666Y-81033880D01*
G04 #@! TO.C,J1*
X144740380Y-91265333D02*
X145454666Y-91265333D01*
X145597523Y-91312952D01*
X145692761Y-91408190D01*
X145740380Y-91551047D01*
X145740380Y-91646285D01*
X145740380Y-90265333D02*
X145740380Y-90836761D01*
X145740380Y-90551047D02*
X144740380Y-90551047D01*
X144883238Y-90646285D01*
X144978476Y-90741523D01*
X145026095Y-90836761D01*
G04 #@! TO.C,C7*
X161494173Y-95360762D02*
X161446554Y-95408381D01*
X161303697Y-95456000D01*
X161208459Y-95456000D01*
X161065601Y-95408381D01*
X160970363Y-95313143D01*
X160922744Y-95217905D01*
X160875125Y-95027429D01*
X160875125Y-94884572D01*
X160922744Y-94694096D01*
X160970363Y-94598858D01*
X161065601Y-94503620D01*
X161208459Y-94456000D01*
X161303697Y-94456000D01*
X161446554Y-94503620D01*
X161494173Y-94551239D01*
X161827506Y-94456000D02*
X162494173Y-94456000D01*
X162065601Y-95456000D01*
G04 #@! TO.C,C6*
X159100333Y-89131142D02*
X159052714Y-89178761D01*
X158909857Y-89226380D01*
X158814619Y-89226380D01*
X158671761Y-89178761D01*
X158576523Y-89083523D01*
X158528904Y-88988285D01*
X158481285Y-88797809D01*
X158481285Y-88654952D01*
X158528904Y-88464476D01*
X158576523Y-88369238D01*
X158671761Y-88274000D01*
X158814619Y-88226380D01*
X158909857Y-88226380D01*
X159052714Y-88274000D01*
X159100333Y-88321619D01*
X159957476Y-88226380D02*
X159767000Y-88226380D01*
X159671761Y-88274000D01*
X159624142Y-88321619D01*
X159528904Y-88464476D01*
X159481285Y-88654952D01*
X159481285Y-89035904D01*
X159528904Y-89131142D01*
X159576523Y-89178761D01*
X159671761Y-89226380D01*
X159862238Y-89226380D01*
X159957476Y-89178761D01*
X160005095Y-89131142D01*
X160052714Y-89035904D01*
X160052714Y-88797809D01*
X160005095Y-88702571D01*
X159957476Y-88654952D01*
X159862238Y-88607333D01*
X159671761Y-88607333D01*
X159576523Y-88654952D01*
X159528904Y-88702571D01*
X159481285Y-88797809D01*
G04 #@! TO.C,C5*
X153350933Y-98721182D02*
X153303314Y-98768801D01*
X153160457Y-98816420D01*
X153065219Y-98816420D01*
X152922361Y-98768801D01*
X152827123Y-98673563D01*
X152779504Y-98578325D01*
X152731885Y-98387849D01*
X152731885Y-98244992D01*
X152779504Y-98054516D01*
X152827123Y-97959278D01*
X152922361Y-97864040D01*
X153065219Y-97816420D01*
X153160457Y-97816420D01*
X153303314Y-97864040D01*
X153350933Y-97911659D01*
X154255695Y-97816420D02*
X153779504Y-97816420D01*
X153731885Y-98292611D01*
X153779504Y-98244992D01*
X153874742Y-98197373D01*
X154112838Y-98197373D01*
X154208076Y-98244992D01*
X154255695Y-98292611D01*
X154303314Y-98387849D01*
X154303314Y-98625944D01*
X154255695Y-98721182D01*
X154208076Y-98768801D01*
X154112838Y-98816420D01*
X153874742Y-98816420D01*
X153779504Y-98768801D01*
X153731885Y-98721182D01*
G04 #@! TO.C,C4*
X148677333Y-83161142D02*
X148629714Y-83208761D01*
X148486857Y-83256380D01*
X148391619Y-83256380D01*
X148248761Y-83208761D01*
X148153523Y-83113523D01*
X148105904Y-83018285D01*
X148058285Y-82827809D01*
X148058285Y-82684952D01*
X148105904Y-82494476D01*
X148153523Y-82399238D01*
X148248761Y-82304000D01*
X148391619Y-82256380D01*
X148486857Y-82256380D01*
X148629714Y-82304000D01*
X148677333Y-82351619D01*
X149534476Y-82589714D02*
X149534476Y-83256380D01*
X149296380Y-82208761D02*
X149058285Y-82923047D01*
X149677333Y-82923047D01*
G04 #@! TO.C,C3*
X146355773Y-97540082D02*
X146308154Y-97587701D01*
X146165297Y-97635320D01*
X146070059Y-97635320D01*
X145927201Y-97587701D01*
X145831963Y-97492463D01*
X145784344Y-97397225D01*
X145736725Y-97206749D01*
X145736725Y-97063892D01*
X145784344Y-96873416D01*
X145831963Y-96778178D01*
X145927201Y-96682940D01*
X146070059Y-96635320D01*
X146165297Y-96635320D01*
X146308154Y-96682940D01*
X146355773Y-96730559D01*
X146689106Y-96635320D02*
X147308154Y-96635320D01*
X146974820Y-97016273D01*
X147117678Y-97016273D01*
X147212916Y-97063892D01*
X147260535Y-97111511D01*
X147308154Y-97206749D01*
X147308154Y-97444844D01*
X147260535Y-97540082D01*
X147212916Y-97587701D01*
X147117678Y-97635320D01*
X146831963Y-97635320D01*
X146736725Y-97587701D01*
X146689106Y-97540082D01*
G04 #@! TO.C,C2*
X151471333Y-83161142D02*
X151423714Y-83208761D01*
X151280857Y-83256380D01*
X151185619Y-83256380D01*
X151042761Y-83208761D01*
X150947523Y-83113523D01*
X150899904Y-83018285D01*
X150852285Y-82827809D01*
X150852285Y-82684952D01*
X150899904Y-82494476D01*
X150947523Y-82399238D01*
X151042761Y-82304000D01*
X151185619Y-82256380D01*
X151280857Y-82256380D01*
X151423714Y-82304000D01*
X151471333Y-82351619D01*
X151852285Y-82351619D02*
X151899904Y-82304000D01*
X151995142Y-82256380D01*
X152233238Y-82256380D01*
X152328476Y-82304000D01*
X152376095Y-82351619D01*
X152423714Y-82446857D01*
X152423714Y-82542095D01*
X152376095Y-82684952D01*
X151804666Y-83256380D01*
X152423714Y-83256380D01*
G04 #@! TO.C,C1*
X161395333Y-97131142D02*
X161347714Y-97178761D01*
X161204857Y-97226380D01*
X161109619Y-97226380D01*
X160966761Y-97178761D01*
X160871523Y-97083523D01*
X160823904Y-96988285D01*
X160776285Y-96797809D01*
X160776285Y-96654952D01*
X160823904Y-96464476D01*
X160871523Y-96369238D01*
X160966761Y-96274000D01*
X161109619Y-96226380D01*
X161204857Y-96226380D01*
X161347714Y-96274000D01*
X161395333Y-96321619D01*
X162347714Y-97226380D02*
X161776285Y-97226380D01*
X162062000Y-97226380D02*
X162062000Y-96226380D01*
X161966761Y-96369238D01*
X161871523Y-96464476D01*
X161776285Y-96512095D01*
G04 #@! TO.C,D1*
X161821904Y-89352380D02*
X161821904Y-88352380D01*
X162060000Y-88352380D01*
X162202857Y-88400000D01*
X162298095Y-88495238D01*
X162345714Y-88590476D01*
X162393333Y-88780952D01*
X162393333Y-88923809D01*
X162345714Y-89114285D01*
X162298095Y-89209523D01*
X162202857Y-89304761D01*
X162060000Y-89352380D01*
X161821904Y-89352380D01*
X163345714Y-89352380D02*
X162774285Y-89352380D01*
X163060000Y-89352380D02*
X163060000Y-88352380D01*
X162964761Y-88495238D01*
X162869523Y-88590476D01*
X162774285Y-88638095D01*
G04 #@! TO.C,U1*
X156290095Y-82510380D02*
X156290095Y-83319904D01*
X156337714Y-83415142D01*
X156385333Y-83462761D01*
X156480571Y-83510380D01*
X156671047Y-83510380D01*
X156766285Y-83462761D01*
X156813904Y-83415142D01*
X156861523Y-83319904D01*
X156861523Y-82510380D01*
X157861523Y-83510380D02*
X157290095Y-83510380D01*
X157575809Y-83510380D02*
X157575809Y-82510380D01*
X157480571Y-82653238D01*
X157385333Y-82748476D01*
X157290095Y-82796095D01*
G04 #@! TO.C,R1*
X161631333Y-83764380D02*
X161298000Y-83288190D01*
X161059904Y-83764380D02*
X161059904Y-82764380D01*
X161440857Y-82764380D01*
X161536095Y-82812000D01*
X161583714Y-82859619D01*
X161631333Y-82954857D01*
X161631333Y-83097714D01*
X161583714Y-83192952D01*
X161536095Y-83240571D01*
X161440857Y-83288190D01*
X161059904Y-83288190D01*
X162583714Y-83764380D02*
X162012285Y-83764380D01*
X162298000Y-83764380D02*
X162298000Y-82764380D01*
X162202761Y-82907238D01*
X162107523Y-83002476D01*
X162012285Y-83050095D01*
G04 #@! TD*
M02*
