G04 #@! TF.GenerationSoftware,KiCad,Pcbnew,5.0.0-fee4fd1~66~ubuntu16.04.1*
G04 #@! TF.CreationDate,2018-10-28T21:05:27-03:00*
G04 #@! TF.ProjectId,MMA7361,4D4D41373336312E6B696361645F7063,rev?*
G04 #@! TF.SameCoordinates,Original*
G04 #@! TF.FileFunction,Copper,L2,Bot,Signal*
G04 #@! TF.FilePolarity,Positive*
%FSLAX46Y46*%
G04 Gerber Fmt 4.6, Leading zero omitted, Abs format (unit mm)*
G04 Created by KiCad (PCBNEW 5.0.0-fee4fd1~66~ubuntu16.04.1) date Sun Oct 28 21:05:27 2018*
%MOMM*%
%LPD*%
G01*
G04 APERTURE LIST*
G04 #@! TA.AperFunction,NonConductor*
%ADD10C,0.250000*%
G04 #@! TD*
G04 #@! TA.AperFunction,NonConductor*
%ADD11C,0.100000*%
G04 #@! TD*
G04 #@! TA.AperFunction,ComponentPad*
%ADD12O,0.850000X0.850000*%
G04 #@! TD*
G04 #@! TA.AperFunction,ComponentPad*
%ADD13R,0.850000X0.850000*%
G04 #@! TD*
G04 #@! TA.AperFunction,ViaPad*
%ADD14C,1.000000*%
G04 #@! TD*
G04 #@! TA.AperFunction,Conductor*
%ADD15C,0.500000*%
G04 #@! TD*
G04 APERTURE END LIST*
D10*
X147214285Y-79547619D02*
X147261904Y-79500000D01*
X147357142Y-79452380D01*
X147595238Y-79452380D01*
X147690476Y-79500000D01*
X147738095Y-79547619D01*
X147785714Y-79642857D01*
X147785714Y-79738095D01*
X147738095Y-79880952D01*
X147166666Y-80452380D01*
X147785714Y-80452380D01*
D11*
X142494000Y-98806000D02*
X142494000Y-78486000D01*
X164846000Y-98806000D02*
X142494000Y-98806000D01*
X164846000Y-78486000D02*
X164846000Y-98806000D01*
X142494000Y-78486000D02*
X164846000Y-78486000D01*
D12*
G04 #@! TO.P,J2,5*
G04 #@! TO.N,/MMA 7361 Module/Og-Detect*
X151702000Y-80772000D03*
G04 #@! TO.P,J2,4*
G04 #@! TO.N,/MMA 7361 Module/Sleep*
X152702000Y-80772000D03*
G04 #@! TO.P,J2,3*
G04 #@! TO.N,GND*
X153702000Y-80772000D03*
G04 #@! TO.P,J2,2*
X154702000Y-80772000D03*
D13*
G04 #@! TO.P,J2,1*
X155702000Y-80772000D03*
G04 #@! TD*
G04 #@! TO.P,J1,1*
G04 #@! TO.N,Net-(J1-Pad1)*
X147320000Y-93472000D03*
D12*
G04 #@! TO.P,J1,2*
G04 #@! TO.N,VCC*
X147320000Y-92472000D03*
G04 #@! TO.P,J1,3*
G04 #@! TO.N,GND*
X147320000Y-91472000D03*
G04 #@! TO.P,J1,4*
G04 #@! TO.N,/MMA 7361 Module/g-Select*
X147320000Y-90472000D03*
G04 #@! TO.P,J1,5*
G04 #@! TO.N,/MMA 7361 Module/SelfTest*
X147320000Y-89472000D03*
G04 #@! TD*
D14*
G04 #@! TO.N,/MMA 7361 Module/Og-Detect*
X153670000Y-83566000D03*
X154599823Y-87821884D03*
G04 #@! TO.N,/MMA 7361 Module/Sleep*
X154940000Y-82550000D03*
X156972000Y-88138000D03*
G04 #@! TO.N,VCC*
X146050000Y-95250000D03*
X158750000Y-92202000D03*
G04 #@! TD*
D15*
G04 #@! TO.N,/MMA 7361 Module/Og-Detect*
X153670000Y-86892061D02*
X154599823Y-87821884D01*
X153670000Y-83566000D02*
X153670000Y-86892061D01*
G04 #@! TO.N,/MMA 7361 Module/Sleep*
X154940000Y-86106000D02*
X156972000Y-88138000D01*
X154940000Y-82550000D02*
X154940000Y-86106000D01*
G04 #@! TO.N,VCC*
X146050000Y-95250000D02*
X156718000Y-95250000D01*
X158750000Y-93218000D02*
X158750000Y-92202000D01*
X156718000Y-95250000D02*
X158750000Y-93218000D01*
G04 #@! TD*
M02*
